/* XPM */
static char *collectible_sheet1704721377[] = {
/* columns rows colors chars-per-pixel */
"192 32 4 1 ",
"  c None",
". c gray19",
"X c #EDBA97",
"o c #F9EDF9",
/* pixels */
"                                                                                                                                                                                                ",
"                                                                                                                                                                                                ",
"                                                                                                                                                                                                ",
"                                                                                                                                                                                                ",
"                                                                                                                                                                                                ",
"                                                                                                                                                                                                ",
"                                                                                                                                                                                                ",
"                                                                                                                                                                                                ",
"                                                                              ....                                                                                                              ",
"                                              ....                          ..XXXX..                          ....                                                                              ",
"              ....                          ..XXXX..                       .XXXooXXX.                       ..XXXX..                          ....                                              ",
"            ..XXXX..                       .XXXooXXX.                      .XXXooXXX.                      .XXXooXXX.                       ..XXXX..                          ....              ",
"           .XXXooXXX.                      .XXXooXXX.                     .XXXXXXXXXX.                     .XXXooXXX.                      .XXXooXXX.                       ..XXXX..            ",
"           .XXXooXXX.                     .XXXXXXXXXX.                    .XXXXXXXXXX.                    .XXXXXXXXXX.                     .XXXooXXX.                      .XXXooXXX.           ",
"          .XXXXXXXXXX.                    .XXXXXXXXXX.                    .ooXXXXXXoo.                    .XXXXXXXXXX.                    .XXXXXXXXXX.                     .XXXooXXX.           ",
"          .XXXXXXXXXX.                    .ooXXXXXXoo.                    .oooooooooo.                    .ooXXXXXXoo.                    .XXXXXXXXXX.                    .XXXXXXXXXX.          ",
"          .ooXXXXXXoo.                    .oooooooooo.                     .oooooooo.                     .oooooooooo.                    .ooXXXXXXoo.                    .XXXXXXXXXX.          ",
"          .oooooooooo.                     .oooooooo.                      .oooooooo.                      .oooooooo.                     .oooooooooo.                    .ooXXXXXXoo.          ",
"           .oooooooo.                      .oooooooo.                       ..oooo..                       .oooooooo.                      .oooooooo.                     .oooooooooo.          ",
"           .oooooooo.                       ..oooo..                          ....                          ..oooo..                       .oooooooo.                      .oooooooo.           ",
"            ..oooo..                          ....                                                            ....                          ..oooo..                       .oooooooo.           ",
"              ....                                                                                                                            ....                          ..oooo..            ",
"                                                                                                                                                                              ....              ",
"                                                                                                                                                                                                ",
"                                                                                                                                                                                                ",
"                                                                                                                                                                                                ",
"                                                                                                                                                                                                ",
"                                                                                                                                                                                                ",
"                                                                                                                                                                                                ",
"                                                                                                                                                                                                ",
"                                                                                                                                                                                                ",
"                                                                                                                                                                                                "
};
