/* XPM */
static char *collectible_wbg_sheet1704721378[] = {
/* columns rows colors chars-per-pixel */
"192 32 5 1 ",
"  c gray19",
". c #A8E058",
"X c #EDBA97",
"o c #F8E8F8",
"O c #F9EDF9",
/* pixels */
"oooooooooooooooooooooooooooooooooooooooooooooooooooooooooooooooooooooooooooooooooooooooooooooooooooooooooooooooooooooooooooooooooooooooooooooooooooooooooooooooooooooooooooooooooooooooooooooooo",
"o.ooooo.o.ooooo.o.ooooo.o.ooooo.o.ooooo.o.ooooo.o.ooooo.o.ooooo.o.ooooo.o.ooooo.o.ooooo.o.ooooo.o.ooooo.o.ooooo.o.ooooo.o.ooooo.o.ooooo.o.ooooo.o.ooooo.o.ooooo.o.ooooo.o.ooooo.o.ooooo.o.ooooo.",
"oooo.ooooooo.ooooooo.ooooooo.ooooooo.ooooooo.ooooooo.ooooooo.ooooooo.ooooooo.ooooooo.ooooooo.ooooooo.ooooooo.ooooooo.ooooooo.ooooooo.ooooooo.ooooooo.ooooooo.ooooooo.ooooooo.ooooooo.ooooooo.ooo",
"oooooooooooooooooooooooooooooooooooooooooooooooooooooooooooooooooooooooooooooooooooooooooooooooooooooooooooooooooooooooooooooooooooooooooooooooooooooooooooooooooooooooooooooooooooooooooooooooo",
".ooooooo.ooooooo.ooooooo.ooooooo.ooooooo.ooooooo.ooooooo.ooooooo.ooooooo.ooooooo.ooooooo.ooooooo.ooooooo.ooooooo.ooooooo.ooooooo.ooooooo.ooooooo.ooooooo.ooooooo.ooooooo.ooooooo.ooooooo.ooooooo",
"ooooooo.ooooooo.ooooooo.ooooooo.ooooooo.ooooooo.ooooooo.ooooooo.ooooooo.ooooooo.ooooooo.ooooooo.ooooooo.ooooooo.ooooooo.ooooooo.ooooooo.ooooooo.ooooooo.ooooooo.ooooooo.ooooooo.ooooooo.ooooooo.",
"oooooooooooooooooooooooooooooooooooooooooooooooooooooooooooooooooooooooooooooooooooooooooooooooooooooooooooooooooooooooooooooooooooooooooooooooooooooooooooooooooooooooooooooooooooooooooooooooo",
"o.ooooooo.ooooooo.ooooooo.ooooooo.ooooooo.ooooooo.ooooooo.ooooooo.ooooooo.ooooooo.ooooooo.ooooooo.ooooooo.ooooooo.ooooooo.ooooooo.ooooooo.ooooooo.ooooooo.ooooooo.ooooooo.ooooooo.ooooooo.oooooo",
"oooooooooooooooooooooooooooooooooooooooooooooooooooooooooooooooooooooooooooooo    oooooooooooooooooooooooooooooooooooooooooooooooooooooooooooooooooooooooooooooooooooooooooooooooooooooooooooooo",
"o.ooooo.o.ooooo.o.ooooo.o.ooooo.o.ooooo.o.oooo    ooooo.o.ooooo.o.ooooo.o.oo  XXXX  ooo.o.ooooo.o.ooooo.o.oooo    ooooo.o.ooooo.o.ooooo.o.ooooo.o.ooooo.o.ooooo.o.ooooo.o.ooooo.o.ooooo.o.ooooo.",
"oooo.ooooooo.o    oo.ooooooo.ooooooo.ooooooo  XXXX  .ooooooo.ooooooo.oooooo XXXOOXXX ooooooo.ooooooo.ooooooo  XXXX  .ooooooo.ooooooo.ooooooo.o    oo.ooooooo.ooooooo.ooooooo.ooooooo.ooooooo.ooo",
"oooooooooooo  XXXX  ooooooooooooooooooooooo XXXOOXXX oooooooooooooooooooooo XXXOOXXX oooooooooooooooooooooo XXXOOXXX ooooooooooooooooooooooo  XXXX  oooooooooooooooooooooooooo    oooooooooooooo",
".ooooooo.oo XXXOOXXX ooo.ooooooo.ooooooo.oo XXXOOXXX ooo.ooooooo.ooooooo.o XXXXXXXXXX oo.ooooooo.ooooooo.oo XXXOOXXX ooo.ooooooo.ooooooo.oo XXXOOXXX ooo.ooooooo.ooooooo.ooo  XXXX  oooo.ooooooo",
"ooooooo.ooo XXXOOXXX oo.ooooooo.ooooooo.oo XXXXXXXXXX o.ooooooo.ooooooo.oo XXXXXXXXXX o.ooooooo.ooooooo.oo XXXXXXXXXX o.ooooooo.ooooooo.ooo XXXOOXXX oo.ooooooo.ooooooo.ooo XXXOOXXX oo.ooooooo.",
"oooooooooo XXXXXXXXXX oooooooooooooooooooo XXXXXXXXXX oooooooooooooooooooo OOXXXXXXOO oooooooooooooooooooo XXXXXXXXXX oooooooooooooooooooo XXXXXXXXXX ooooooooooooooooooooo XXXOOXXX ooooooooooo",
"o.ooooooo. XXXXXXXXXX ooo.ooooooo.ooooooo. OOXXXXXXOO ooo.ooooooo.ooooooo. OOOOOOOOOO ooo.ooooooo.ooooooo. OOXXXXXXOO ooo.ooooooo.ooooooo. XXXXXXXXXX ooo.ooooooo.ooooooo. XXXXXXXXXX ooo.oooooo",
"oooooooooo OOXXXXXXOO oooooooooooooooooooo OOOOOOOOOO ooooooooooooooooooooo OOOOOOOO ooooooooooooooooooooo OOOOOOOOOO oooooooooooooooooooo OOXXXXXXOO oooooooooooooooooooo XXXXXXXXXX oooooooooo",
"o.ooooo.o. OOOOOOOOOO o.o.ooooo.o.ooooo.o.o OOOOOOOO oo.o.ooooo.o.ooooo.o.o OOOOOOOO oo.o.ooooo.o.ooooo.o.o OOOOOOOO oo.o.ooooo.o.ooooo.o. OOOOOOOOOO o.o.ooooo.o.ooooo.o. OOXXXXXXOO o.o.ooooo.",
"oooo.oooooo OOOOOOOO ooooooo.ooooooo.oooooo OOOOOOOO ooooooo.ooooooo.ooooooo  OOOO  .ooooooo.ooooooo.oooooo OOOOOOOO ooooooo.ooooooo.oooooo OOOOOOOO ooooooo.ooooooo.ooooo OOOOOOOOOO oooooo.ooo",
"ooooooooooo OOOOOOOO ooooooooooooooooooooooo  OOOO  oooooooooooooooooooooooooo    oooooooooooooooooooooooooo  OOOO  ooooooooooooooooooooooo OOOOOOOO oooooooooooooooooooooo OOOOOOOO ooooooooooo",
".ooooooo.ooo  OOOO  oooo.ooooooo.ooooooo.ooooo    oooooo.ooooooo.ooooooo.ooooooo.ooooooo.ooooooo.ooooooo.ooooo    oooooo.ooooooo.ooooooo.ooo  OOOO  oooo.ooooooo.ooooooo.oo OOOOOOOO ooo.ooooooo",
"ooooooo.oooooo    ooooo.ooooooo.ooooooo.ooooooo.ooooooo.ooooooo.ooooooo.ooooooo.ooooooo.ooooooo.ooooooo.ooooooo.ooooooo.ooooooo.ooooooo.oooooo    ooooo.ooooooo.ooooooo.oooo  OOOO  ooo.ooooooo.",
"oooooooooooooooooooooooooooooooooooooooooooooooooooooooooooooooooooooooooooooooooooooooooooooooooooooooooooooooooooooooooooooooooooooooooooooooooooooooooooooooooooooooooooooo    oooooooooooooo",
"o.ooooooo.ooooooo.ooooooo.ooooooo.ooooooo.ooooooo.ooooooo.ooooooo.ooooooo.ooooooo.ooooooo.ooooooo.ooooooo.ooooooo.ooooooo.ooooooo.ooooooo.ooooooo.ooooooo.ooooooo.ooooooo.ooooooo.ooooooo.oooooo",
"oooooooooooooooooooooooooooooooooooooooooooooooooooooooooooooooooooooooooooooooooooooooooooooooooooooooooooooooooooooooooooooooooooooooooooooooooooooooooooooooooooooooooooooooooooooooooooooooo",
"o.ooooo.o.ooooo.o.ooooo.o.ooooo.o.ooooo.o.ooooo.o.ooooo.o.ooooo.o.ooooo.o.ooooo.o.ooooo.o.ooooo.o.ooooo.o.ooooo.o.ooooo.o.ooooo.o.ooooo.o.ooooo.o.ooooo.o.ooooo.o.ooooo.o.ooooo.o.ooooo.o.ooooo.",
"oooo.ooooooo.ooooooo.ooooooo.ooooooo.ooooooo.ooooooo.ooooooo.ooooooo.ooooooo.ooooooo.ooooooo.ooooooo.ooooooo.ooooooo.ooooooo.ooooooo.ooooooo.ooooooo.ooooooo.ooooooo.ooooooo.ooooooo.ooooooo.ooo",
"oooooooooooooooooooooooooooooooooooooooooooooooooooooooooooooooooooooooooooooooooooooooooooooooooooooooooooooooooooooooooooooooooooooooooooooooooooooooooooooooooooooooooooooooooooooooooooooooo",
".ooooooo.ooooooo.ooooooo.ooooooo.ooooooo.ooooooo.ooooooo.ooooooo.ooooooo.ooooooo.ooooooo.ooooooo.ooooooo.ooooooo.ooooooo.ooooooo.ooooooo.ooooooo.ooooooo.ooooooo.ooooooo.ooooooo.ooooooo.ooooooo",
"ooooooo.ooooooo.ooooooo.ooooooo.ooooooo.ooooooo.ooooooo.ooooooo.ooooooo.ooooooo.ooooooo.ooooooo.ooooooo.ooooooo.ooooooo.ooooooo.ooooooo.ooooooo.ooooooo.ooooooo.ooooooo.ooooooo.ooooooo.ooooooo.",
"oooooooooooooooooooooooooooooooooooooooooooooooooooooooooooooooooooooooooooooooooooooooooooooooooooooooooooooooooooooooooooooooooooooooooooooooooooooooooooooooooooooooooooooooooooooooooooooooo",
"o.ooooooo.ooooooo.ooooooo.ooooooo.ooooooo.ooooooo.ooooooo.ooooooo.ooooooo.ooooooo.ooooooo.ooooooo.ooooooo.ooooooo.ooooooo.ooooooo.ooooooo.ooooooo.ooooooo.ooooooo.ooooooo.ooooooo.ooooooo.oooooo"
};
