/* XPM */
static char *collectible1704721378[] = {
/* columns rows colors chars-per-pixel */
"32 32 4 1 ",
"  c None",
". c gray19",
"X c #EDBA97",
"o c #F9EDF9",
/* pixels */
"                                ",
"                                ",
"                                ",
"                                ",
"                                ",
"                                ",
"                                ",
"                                ",
"                                ",
"                                ",
"              ....              ",
"            ..XXXX..            ",
"           .XXXooXXX.           ",
"           .XXXooXXX.           ",
"          .XXXXXXXXXX.          ",
"          .XXXXXXXXXX.          ",
"          .ooXXXXXXoo.          ",
"          .oooooooooo.          ",
"           .oooooooo.           ",
"           .oooooooo.           ",
"            ..oooo..            ",
"              ....              ",
"                                ",
"                                ",
"                                ",
"                                ",
"                                ",
"                                ",
"                                ",
"                                ",
"                                ",
"                                "
};
