/* XPM */
static char *f718b8bfa6f84184efd0e75cb3b0b445PrI1uWYphh8Noi8R[] = {
/* columns rows colors chars-per-pixel */
"128 128 4 1 ",
"  c None",
". c gray8",
"X c #EDBA97",
"o c #F9EDF9",
/* pixels */
"                                                                                                                                ",
"                                                                                                                                ",
"                                                                                                                                ",
"                                                                                                                                ",
"                                                                                                                                ",
"                                                                                                                                ",
"                                                                                                                                ",
"                                                                                                                                ",
"               ..                                                              ..                                               ",
"         ......oo......                        ..                        ......oo......                        ..               ",
"         .oo.X.oo.X.oo.                  ......oo......                  .oo.X.oo.X.oo.                  ......oo......         ",
"          .oXXXXXXXXo.                   .oo.X.oo.X.oo.                   .oXXXXXXXXo.                   .oo.X.oo.X.oo.         ",
"           .X.XXXX.X.                     .oXXXXXXXXo.                     .X.XXXX.X.                     .oXXXXXXXXo.          ",
"          .XX..oo..XX.                     .X.XXXX.X.                     .XX..oo..XX.                     .X.XXXX.X.           ",
"          .XXXXXXXXXX.                    .XX..oo..XX.                    .XXXXXXXXXX.                    .XX..oo..XX.          ",
"           ...XooX...                   ...XXXXXXXXXX...                   ...XooX...                   ...XXXXXXXXXX...        ",
"          .X.o....o.X.                  .XX...XooX...XX.                  .X.o....o.X.                  .XX...XooX...XX.        ",
"         .X.X.oooo.X.X.                 .XXX.o....o.XXX.                 .X.X.oooo.X.X.                 .XXX.o....o.XXX.        ",
"        .XX.XX....XX.XX.                 .X.X.oooo.X.X.                 .XX.XX....XX.XX.                 .X.X.oooo.X.X.         ",
"         ...XooooooX...                   ..XX....XX..                   ...XooooooX...                   ..XX....XX..          ",
"           ..oooooo..                     ..XooooooX.                      ..oooooo..                      .XooooooX..          ",
"          .X..oooo..X.                    .X..oooo...                     .X..oooo..X.                     ...oooo..X.          ",
"          .oXo....oXo.                    .oXo......                      .oXo....oXo.                      ......oXo.          ",
"           ...    ...                      ...                             ...    ...                             ...           ",
"                                                                                                                                ",
"                                                                                                                                ",
"                                                                                                                                ",
"                                                                                                                                ",
"                                                                                                                                ",
"                                                                                                                                ",
"                                                                                                                                ",
"                                                                                                                                ",
"                                                                                                                                ",
"                                                                                                                                ",
"                                                                                                                                ",
"                                                                                                                                ",
"                                                                                                                                ",
"                                                                                                                                ",
"                                                                                                                                ",
"                                                                                                                                ",
"               ..                                                              ..                                               ",
"         ......oo......                        ..                        ......oo......                        ..               ",
"         .oo.X.oo.X.oo.                  ......oo......                  .oo.X.oo.X.oo.                  ......oo......         ",
"          .oXXXXXXXXo.                   .oo.X.oo.X.oo.                   .oXXXXXXXXo.                   .oo.X.oo.X.oo.         ",
"           .XXXooXXX.                     .oXXXXXXXXo.                     .XXXooXXX.                     .oXXXXXXXXo.          ",
"          .XXXXXXXXXX.                     .XXXooXXX.                     .XXXXXXXXXX.                     .XXXooXXX.           ",
"          .XXXXooXXXX.                    .XXXXXXXXXX.                    .XXXXooXXXX.                    .XXXXXXXXXX.          ",
"           ...XXXX...                   ...XXXXooXXXX...                   ...XXXX...                   ...XXXXooXXXX...        ",
"          .X.X....X.X.                  .XX...XXXX...XX.                  .X.X....X.X.                  .XX...XXXX...XX.        ",
"         .X.XXXXXXXX.X.                 .XXX.X....X.XXX.                 .X.XXXXXXXX.X.                 .XXX.X....X.XXX.        ",
"        .XX.XXX..XXX.XX.                 .X.XXX..XXX.X.                 .XX.XXX..XXX.XX.                 .X.XXX..XXX.X.         ",
"         ...XX.XX.XX...                   ..XX.XX.XX..                   ...XX.XX.XX...                   ..XX.XX.XX..          ",
"           ..XXXXXX..                     ..XXXXXXXX.                      ..XXXXXX..                      .XXXXXXXX..          ",
"          .X..XXXX..X.                    .X..XXXX...                     .X..XXXX..X.                     ...XXXX..X.          ",
"          .XXX....XXX.                    .XXX......                      .XXX....XXX.                      ......XXX.          ",
"           ...    ...                      ...                             ...    ...                             ...           ",
"                                                                                                                                ",
"                                                                                                                                ",
"                                                                                                                                ",
"                                                                                                                                ",
"                                                                                                                                ",
"                                                                                                                                ",
"                                                                                                                                ",
"                                                                                                                                ",
"                                                                                                                                ",
"                                                                                                                                ",
"                                                                                                                                ",
"                                                                                                                                ",
"                                                                                                                                ",
"                                                                                                                                ",
"                                                                                                                                ",
"                                                                                                                                ",
"            ..                                                                                                                  ",
"           .oo...                           ..                                                                                  ",
"           .ooXXX....                      .oo...                                                                               ",
"           .XXXXX.ooo.                     .ooXXX....                                                                           ",
"          .XXXXXXoooo.                     .XXXXX.ooo.                                                                          ",
"         ..XXX.XXXoo.                     .XXXXXXoooo.                                                                          ",
"        .oXX...XXXX.                     ..XXX.XXXo..                                                                           ",
"        .XXXXXXXXX.                     .oXX...XXX.X.                                                                           ",
"         ...o.XXXX..                    .XXXXXXXX.XX.                                                                           ",
"          .o.ooXX.XX.                    ...o.XXX.XXX.                                                                          ",
"           ......XXXX..                   .o.ooX.XXX..                                                                          ",
"              .oo.XXX.X.                   .....oXXXXX.                                                                         ",
"              .ooX.X.XX.                   ...oooXXX.XX.                                                                        ",
"               ..XX.oo.                   .oXX.oXXX.X.X.                                                                        ",
"              .oXXX...                     .XX.....oX..                                                                         ",
"               ....                         ...    ..                                                                           ",
"                                                                                                                                ",
"                                                                                                                                ",
"                                                                                                                                ",
"                                                                                                                                ",
"                                                                                                                                ",
"                                                                                                                                ",
"                                                                                                                                ",
"                                                                                                                                ",
"                                                                                                                                ",
"                                                                                                                                ",
"                                                                                                                                ",
"                                                                                                                                ",
"                                                                                                                                ",
"                                                                                                                                ",
"                                                                                                                                ",
"                                                                                                                                ",
"                  ..                                                                                                            ",
"               ...oo.                             ..                                                                            ",
"           ....XXXoo.                          ...oo.                                                                           ",
"          .ooo.XXXXX.                      ....XXXoo.                                                                           ",
"          .ooooXXXXXX.                    .ooo.XXXXX.                                                                           ",
"           .ooXXX.XXX..                   .ooooXXXXXX.                                                                          ",
"            .XXXX...XXo.                   ..oXXX.XXX..                                                                         ",
"             .XXXXXXXXX.                   .X.XXX...XXo.                                                                        ",
"            ..XXXX.o...                    .XX.XXXXXXXX.                                                                        ",
"           .XX.XXoo.o.                    .XXX.XXX.o...                                                                         ",
"         ..XXXX......                     ..XXX.Xoo.o.                                                                          ",
"        .X.XXX.oo.                       .XXXXXo.....                                                                           ",
"        .XX.X.Xoo.                      .XX.XXXooo...                                                                           ",
"         .oo.XX..                       .X.X.XXXo.XXo.                                                                          ",
"          ...XXXo.                       ..Xo.....XX.                                                                           ",
"             ....                          ..    ...                                                                            ",
"                                                                                                                                ",
"                                                                                                                                ",
"                                                                                                                                ",
"                                                                                                                                ",
"                                                                                                                                ",
"                                                                                                                                ",
"                                                                                                                                ",
"                                                                                                                                "
};
