/* XPM */
static char *_4f2189e7a43483995c28eb0cbd21e035rnl4wggYCwt8uoa[] = {
/* columns rows colors chars-per-pixel */
"128 128 6 1 ",
"  c None",
". c gray8",
"X c #A8E058",
"o c #EDBA97",
"O c #F8E8F8",
"+ c #F9EDF9",
/* pixels */
"OOOOOOOOOOOOOOOOOOOOOOOOOOOOOOOOOOOOOOOOOOOOOOOOOOOOOOOOOOOOOOOOOOOOOOOOOOOOOOOOOOOOOOOOOOOOOOOOOOOOOOOOOOOOOOOOOOOOOOOOOOOOOOOO",
"OXOOOOOXOXOOOOOXOXOOOOOXOXOOOOOXOXOOOOOXOXOOOOOXOXOOOOOXOXOOOOOXOXOOOOOXOXOOOOOXOXOOOOOXOXOOOOOXOXOOOOOXOXOOOOOXOXOOOOOXOXOOOOOX",
"OOOOXOOOOOOOXOOOOOOOXOOOOOOOXOOOOOOOXOOOOOOOXOOOOOOOXOOOOOOOXOOOOOOOXOOOOOOOXOOOOOOOXOOOOOOOXOOOOOOOXOOOOOOOXOOOOOOOXOOOOOOOXOOO",
"OOOOOOOOOOOOOOOOOOOOOOOOOOOOOOOOOOOOOOOOOOOOOOOOOOOOOOOOOOOOOOOOOOOOOOOOOOOOOOOOOOOOOOOOOOOOOOOOOOOOOOOOOOOOOOOOOOOOOOOOOOOOOOOO",
"XOOOOOOOXOOOOOOOXOOOOOOOXOOOOOOOXOOOOOOOXOOOOOOOXOOOOOOOXOOOOOOOXOOOOOOOXOOOOOOOXOOOOOOOXOOOOOOOXOOOOOOOXOOOOOOOXOOOOOOOXOOOOOOO",
"OOOOOOOXOOOOOOOXOOOOOOOXOOOOOOOXOOOOOOOXOOOOOOOXOOOOOOOXOOOOOOOXOOOOOOOXOOOOOOOXOOOOOOOXOOOOOOOXOOOOOOOXOOOOOOOXOOOOOOOXOOOOOOOX",
"OOOOOOOOOOOOOOOOOOOOOOOOOOOOOOOOOOOOOOOOOOOOOOOOOOOOOOOOOOOOOOOOOOOOOOOOOOOOOOOOOOOOOOOOOOOOOOOOOOOOOOOOOOOOOOOOOOOOOOOOOOOOOOOO",
"OXOOOOOOOXOOOOOOOXOOOOOOOXOOOOOOOXOOOOOOOXOOOOOOOXOOOOOOOXOOOOOOOXOOOOOOOXOOOOOOOXOOOOOOOXOOOOOOOXOOOOOOOXOOOOOOOXOOOOOOOXOOOOOO",
"OOOOOOOOOOOOOOO..OOOOOOOOOOOOOOOOOOOOOOOOOOOOOOOOOOOOOOOOOOOOOOOOOOOOOOOOOOOOOO..OOOOOOOOOOOOOOOOOOOOOOOOOOOOOOOOOOOOOOOOOOOOOOO",
"OXOOOOOXO......++......XOXOOOOOXOXOOOOOXOXOOOOO..XOOOOOXOXOOOOOXOXOOOOOXO......++......XOXOOOOOXOXOOOOOXOXOOOOO..XOOOOOXOXOOOOOX",
"OOOOXOOOO.++.o.++.o.++.OOOOOXOOOOOOOXOOOO......++......OOOOOXOOOOOOOXOOOO.++.o.++.o.++.OOOOOXOOOOOOOXOOOO......++......OOOOOXOOO",
"OOOOOOOOOO.+oooooooo+.OOOOOOOOOOOOOOOOOOO.++.o.++.o.++.OOOOOOOOOOOOOOOOOOO.+oooooooo+.OOOOOOOOOOOOOOOOOOO.++.o.++.o.++.OOOOOOOOO",
"XOOOOOOOXOO.o.oooo.o.OOOXOOOOOOOXOOOOOOOXO.+oooooooo+.OOXOOOOOOOXOOOOOOOXOO.o.oooo.o.OOOXOOOOOOOXOOOOOOOXO.+oooooooo+.OOXOOOOOOO",
"OOOOOOOXOO.oo..++..oo.OXOOOOOOOXOOOOOOOXOOO.o.oooo.o.OOXOOOOOOOXOOOOOOOXOO.oo..++..oo.OXOOOOOOOXOOOOOOOXOOO.o.oooo.o.OOXOOOOOOOX",
"OOOOOOOOOO.oooooooooo.OOOOOOOOOOOOOOOOOOOO.oo..++..oo.OOOOOOOOOOOOOOOOOOOO.oooooooooo.OOOOOOOOOOOOOOOOOOOO.oo..++..oo.OOOOOOOOOO",
"OXOOOOOOOXO...o++o...OOOOXOOOOOOOXOOOOOO...oooooooooo...OXOOOOOOOXOOOOOOOXO...o++o...OOOOXOOOOOOOXOOOOOO...oooooooooo...OXOOOOOO",
"OOOOOOOOOO.o.+....+.o.OOOOOOOOOOOOOOOOOO.oo...o++o...oo.OOOOOOOOOOOOOOOOOO.o.+....+.o.OOOOOOOOOOOOOOOOOO.oo...o++o...oo.OOOOOOOO",
"OXOOOOOXO.o.o.++++.o.o.XOXOOOOOXOXOOOOOX.ooo.+....+.ooo.OXOOOOOXOXOOOOOXO.o.o.++++.o.o.XOXOOOOOXOXOOOOOX.ooo.+....+.ooo.OXOOOOOX",
"OOOOXOOO.oo.oo....oo.oo.OOOOXOOOOOOOXOOOO.o.o.++++.o.o.OOOOOXOOOOOOOXOOO.oo.oo....oo.oo.OOOOXOOOOOOOXOOOO.o.o.++++.o.o.OOOOOXOOO",
"OOOOOOOOO...o++++++o...OOOOOOOOOOOOOOOOOOO..oo....oo..OOOOOOOOOOOOOOOOOOO...o++++++o...OOOOOOOOOOOOOOOOOOO..oo....oo..OOOOOOOOOO",
"XOOOOOOOXOO..++++++..OOOXOOOOOOOXOOOOOOOXO..o++++++o.OOOXOOOOOOOXOOOOOOOXOO..++++++..OOOXOOOOOOOXOOOOOOOXOO.o++++++o..OOXOOOOOOO",
"OOOOOOOXOO.o..++++..o.OXOOOOOOOXOOOOOOOXOO.o..++++...OOXOOOOOOOXOOOOOOOXOO.o..++++..o.OXOOOOOOOXOOOOOOOXOOO...++++..o.OXOOOOOOOX",
"OOOOOOOOOO.+o+....+o+.OOOOOOOOOOOOOOOOOOOO.+o+......OOOOOOOOOOOOOOOOOOOOOO.+o+....+o+.OOOOOOOOOOOOOOOOOOOOOO......+o+.OOOOOOOOOO",
"OXOOOOOOOXO...OOOX...OOOOXOOOOOOOXOOOOOOOXO...OOOXOOOOOOOXOOOOOOOXOOOOOOOXO...OOOX...OOOOXOOOOOOOXOOOOOOOXOOOOOOOX...OOOOXOOOOOO",
"OOOOOOOOOOOOOOOOOOOOOOOOOOOOOOOOOOOOOOOOOOOOOOOOOOOOOOOOOOOOOOOOOOOOOOOOOOOOOOOOOOOOOOOOOOOOOOOOOOOOOOOOOOOOOOOOOOOOOOOOOOOOOOOO",
"OXOOOOOXOXOOOOOXOXOOOOOXOXOOOOOXOXOOOOOXOXOOOOOXOXOOOOOXOXOOOOOXOXOOOOOXOXOOOOOXOXOOOOOXOXOOOOOXOXOOOOOXOXOOOOOXOXOOOOOXOXOOOOOX",
"OOOOXOOOOOOOXOOOOOOOXOOOOOOOXOOOOOOOXOOOOOOOXOOOOOOOXOOOOOOOXOOOOOOOXOOOOOOOXOOOOOOOXOOOOOOOXOOOOOOOXOOOOOOOXOOOOOOOXOOOOOOOXOOO",
"OOOOOOOOOOOOOOOOOOOOOOOOOOOOOOOOOOOOOOOOOOOOOOOOOOOOOOOOOOOOOOOOOOOOOOOOOOOOOOOOOOOOOOOOOOOOOOOOOOOOOOOOOOOOOOOOOOOOOOOOOOOOOOOO",
"XOOOOOOOXOOOOOOOXOOOOOOOXOOOOOOOXOOOOOOOXOOOOOOOXOOOOOOOXOOOOOOOXOOOOOOOXOOOOOOOXOOOOOOOXOOOOOOOXOOOOOOOXOOOOOOOXOOOOOOOXOOOOOOO",
"OOOOOOOXOOOOOOOXOOOOOOOXOOOOOOOXOOOOOOOXOOOOOOOXOOOOOOOXOOOOOOOXOOOOOOOXOOOOOOOXOOOOOOOXOOOOOOOXOOOOOOOXOOOOOOOXOOOOOOOXOOOOOOOX",
"OOOOOOOOOOOOOOOOOOOOOOOOOOOOOOOOOOOOOOOOOOOOOOOOOOOOOOOOOOOOOOOOOOOOOOOOOOOOOOOOOOOOOOOOOOOOOOOOOOOOOOOOOOOOOOOOOOOOOOOOOOOOOOOO",
"OXOOOOOOOXOOOOOOOXOOOOOOOXOOOOOOOXOOOOOOOXOOOOOOOXOOOOOOOXOOOOOOOXOOOOOOOXOOOOOOOXOOOOOOOXOOOOOOOXOOOOOOOXOOOOOOOXOOOOOOOXOOOOOO",
"OOOOOOOOOOOOOOOOOOOOOOOOOOOOOOOOOOOOOOOOOOOOOOOOOOOOOOOOOOOOOOOOOOOOOOOOOOOOOOOOOOOOOOOOOOOOOOOOOOOOOOOOOOOOOOOOOOOOOOOOOOOOOOOO",
"OXOOOOOXOXOOOOOXOXOOOOOXOXOOOOOXOXOOOOOXOXOOOOOXOXOOOOOXOXOOOOOXOXOOOOOXOXOOOOOXOXOOOOOXOXOOOOOXOXOOOOOXOXOOOOOXOXOOOOOXOXOOOOOX",
"OOOOXOOOOOOOXOOOOOOOXOOOOOOOXOOOOOOOXOOOOOOOXOOOOOOOXOOOOOOOXOOOOOOOXOOOOOOOXOOOOOOOXOOOOOOOXOOOOOOOXOOOOOOOXOOOOOOOXOOOOOOOXOOO",
"OOOOOOOOOOOOOOOOOOOOOOOOOOOOOOOOOOOOOOOOOOOOOOOOOOOOOOOOOOOOOOOOOOOOOOOOOOOOOOOOOOOOOOOOOOOOOOOOOOOOOOOOOOOOOOOOOOOOOOOOOOOOOOOO",
"XOOOOOOOXOOOOOOOXOOOOOOOXOOOOOOOXOOOOOOOXOOOOOOOXOOOOOOOXOOOOOOOXOOOOOOOXOOOOOOOXOOOOOOOXOOOOOOOXOOOOOOOXOOOOOOOXOOOOOOOXOOOOOOO",
"OOOOOOOXOOOOOOOXOOOOOOOXOOOOOOOXOOOOOOOXOOOOOOOXOOOOOOOXOOOOOOOXOOOOOOOXOOOOOOOXOOOOOOOXOOOOOOOXOOOOOOOXOOOOOOOXOOOOOOOXOOOOOOOX",
"OOOOOOOOOOOOOOOOOOOOOOOOOOOOOOOOOOOOOOOOOOOOOOOOOOOOOOOOOOOOOOOOOOOOOOOOOOOOOOOOOOOOOOOOOOOOOOOOOOOOOOOOOOOOOOOOOOOOOOOOOOOOOOOO",
"OXOOOOOOOXOOOOOOOXOOOOOOOXOOOOOOOXOOOOOOOXOOOOOOOXOOOOOOOXOOOOOOOXOOOOOOOXOOOOOOOXOOOOOOOXOOOOOOOXOOOOOOOXOOOOOOOXOOOOOOOXOOOOOO",
"OOOOOOOOOOOOOOO..OOOOOOOOOOOOOOOOOOOOOOOOOOOOOOOOOOOOOOOOOOOOOOOOOOOOOOOOOOOOOO..OOOOOOOOOOOOOOOOOOOOOOOOOOOOOOOOOOOOOOOOOOOOOOO",
"OXOOOOOXO......++......XOXOOOOOXOXOOOOOXOXOOOOO..XOOOOOXOXOOOOOXOXOOOOOXO......++......XOXOOOOOXOXOOOOOXOXOOOOO..XOOOOOXOXOOOOOX",
"OOOOXOOOO.++.o.++.o.++.OOOOOXOOOOOOOXOOOO......++......OOOOOXOOOOOOOXOOOO.++.o.++.o.++.OOOOOXOOOOOOOXOOOO......++......OOOOOXOOO",
"OOOOOOOOOO.+oooooooo+.OOOOOOOOOOOOOOOOOOO.++.o.++.o.++.OOOOOOOOOOOOOOOOOOO.+oooooooo+.OOOOOOOOOOOOOOOOOOO.++.o.++.o.++.OOOOOOOOO",
"XOOOOOOOXOO.ooo++ooo.OOOXOOOOOOOXOOOOOOOXO.+oooooooo+.OOXOOOOOOOXOOOOOOOXOO.ooo++ooo.OOOXOOOOOOOXOOOOOOOXO.+oooooooo+.OOXOOOOOOO",
"OOOOOOOXOO.oooooooooo.OXOOOOOOOXOOOOOOOXOOO.ooo++ooo.OOXOOOOOOOXOOOOOOOXOO.oooooooooo.OXOOOOOOOXOOOOOOOXOOO.ooo++ooo.OOXOOOOOOOX",
"OOOOOOOOOO.oooo++oooo.OOOOOOOOOOOOOOOOOOOO.oooooooooo.OOOOOOOOOOOOOOOOOOOO.oooo++oooo.OOOOOOOOOOOOOOOOOOOO.oooooooooo.OOOOOOOOOO",
"OXOOOOOOOXO...oooo...OOOOXOOOOOOOXOOOOOO...oooo++oooo...OXOOOOOOOXOOOOOOOXO...oooo...OOOOXOOOOOOOXOOOOOO...oooo++oooo...OXOOOOOO",
"OOOOOOOOOO.o.o....o.o.OOOOOOOOOOOOOOOOOO.oo...oooo...oo.OOOOOOOOOOOOOOOOOO.o.o....o.o.OOOOOOOOOOOOOOOOOO.oo...oooo...oo.OOOOOOOO",
"OXOOOOOXO.o.oooooooo.o.XOXOOOOOXOXOOOOOX.ooo.o....o.ooo.OXOOOOOXOXOOOOOXO.o.oooooooo.o.XOXOOOOOXOXOOOOOX.ooo.o....o.ooo.OXOOOOOX",
"OOOOXOOO.oo.ooo..ooo.oo.OOOOXOOOOOOOXOOOO.o.ooo..ooo.o.OOOOOXOOOOOOOXOOO.oo.ooo..ooo.oo.OOOOXOOOOOOOXOOOO.o.ooo..ooo.o.OOOOOXOOO",
"OOOOOOOOO...oo.oo.oo...OOOOOOOOOOOOOOOOOOO..oo.oo.oo..OOOOOOOOOOOOOOOOOOO...oo.oo.oo...OOOOOOOOOOOOOOOOOOO..oo.oo.oo..OOOOOOOOOO",
"XOOOOOOOXOO..oooooo..OOOXOOOOOOOXOOOOOOOXO..oooooooo.OOOXOOOOOOOXOOOOOOOXOO..oooooo..OOOXOOOOOOOXOOOOOOOXOO.oooooooo..OOXOOOOOOO",
"OOOOOOOXOO.o..oooo..o.OXOOOOOOOXOOOOOOOXOO.o..oooo...OOXOOOOOOOXOOOOOOOXOO.o..oooo..o.OXOOOOOOOXOOOOOOOXOOO...oooo..o.OXOOOOOOOX",
"OOOOOOOOOO.ooo....ooo.OOOOOOOOOOOOOOOOOOOO.ooo......OOOOOOOOOOOOOOOOOOOOOO.ooo....ooo.OOOOOOOOOOOOOOOOOOOOOO......ooo.OOOOOOOOOO",
"OXOOOOOOOXO...OOOX...OOOOXOOOOOOOXOOOOOOOXO...OOOXOOOOOOOXOOOOOOOXOOOOOOOXO...OOOX...OOOOXOOOOOOOXOOOOOOOXOOOOOOOX...OOOOXOOOOOO",
"OOOOOOOOOOOOOOOOOOOOOOOOOOOOOOOOOOOOOOOOOOOOOOOOOOOOOOOOOOOOOOOOOOOOOOOOOOOOOOOOOOOOOOOOOOOOOOOOOOOOOOOOOOOOOOOOOOOOOOOOOOOOOOOO",
"OXOOOOOXOXOOOOOXOXOOOOOXOXOOOOOXOXOOOOOXOXOOOOOXOXOOOOOXOXOOOOOXOXOOOOOXOXOOOOOXOXOOOOOXOXOOOOOXOXOOOOOXOXOOOOOXOXOOOOOXOXOOOOOX",
"OOOOXOOOOOOOXOOOOOOOXOOOOOOOXOOOOOOOXOOOOOOOXOOOOOOOXOOOOOOOXOOOOOOOXOOOOOOOXOOOOOOOXOOOOOOOXOOOOOOOXOOOOOOOXOOOOOOOXOOOOOOOXOOO",
"OOOOOOOOOOOOOOOOOOOOOOOOOOOOOOOOOOOOOOOOOOOOOOOOOOOOOOOOOOOOOOOOOOOOOOOOOOOOOOOOOOOOOOOOOOOOOOOOOOOOOOOOOOOOOOOOOOOOOOOOOOOOOOOO",
"XOOOOOOOXOOOOOOOXOOOOOOOXOOOOOOOXOOOOOOOXOOOOOOOXOOOOOOOXOOOOOOOXOOOOOOOXOOOOOOOXOOOOOOOXOOOOOOOXOOOOOOOXOOOOOOOXOOOOOOOXOOOOOOO",
"OOOOOOOXOOOOOOOXOOOOOOOXOOOOOOOXOOOOOOOXOOOOOOOXOOOOOOOXOOOOOOOXOOOOOOOXOOOOOOOXOOOOOOOXOOOOOOOXOOOOOOOXOOOOOOOXOOOOOOOXOOOOOOOX",
"OOOOOOOOOOOOOOOOOOOOOOOOOOOOOOOOOOOOOOOOOOOOOOOOOOOOOOOOOOOOOOOOOOOOOOOOOOOOOOOOOOOOOOOOOOOOOOOOOOOOOOOOOOOOOOOOOOOOOOOOOOOOOOOO",
"OXOOOOOOOXOOOOOOOXOOOOOOOXOOOOOOOXOOOOOOOXOOOOOOOXOOOOOOOXOOOOOOOXOOOOOOOXOOOOOOOXOOOOOOOXOOOOOOOXOOOOOOOXOOOOOOOXOOOOOOOXOOOOOO",
"OOOOOOOOOOOOOOOOOOOOOOOOOOOOOOOOOOOOOOOOOOOOOOOOOOOOOOOOOOOOOOOO                                                                ",
"OXOOOOOXOXOOOOOXOXOOOOOXOXOOOOOXOXOOOOOXOXOOOOOXOXOOOOOXOXOOOOOX                                                                ",
"OOOOXOOOOOOOXOOOOOOOXOOOOOOOXOOOOOOOXOOOOOOOXOOOOOOOXOOOOOOOXOOO                                                                ",
"OOOOOOOOOOOOOOOOOOOOOOOOOOOOOOOOOOOOOOOOOOOOOOOOOOOOOOOOOOOOOOOO                                                                ",
"XOOOOOOOXOOOOOOOXOOOOOOOXOOOOOOOXOOOOOOOXOOOOOOOXOOOOOOOXOOOOOOO                                                                ",
"OOOOOOOXOOOOOOOXOOOOOOOXOOOOOOOXOOOOOOOXOOOOOOOXOOOOOOOXOOOOOOOX                                                                ",
"OOOOOOOOOOOOOOOOOOOOOOOOOOOOOOOOOOOOOOOOOOOOOOOOOOOOOOOOOOOOOOOO                                                                ",
"OXOOOOOOOXOOOOOOOXOOOOOOOXOOOOOOOXOOOOOOOXOOOOOOOXOOOOOOOXOOOOOO                                                                ",
"OOOOOOOOOOOO..OOOOOOOOOOOOOOOOOOOOOOOOOOOOOOOOOOOOOOOOOOOOOOOOOO                                                                ",
"OXOOOOOXOXO.++...XOOOOOXOXOOOOOXOXOOOOOXOXOO..OXOXOOOOOXOXOOOOOX                                                                ",
"OOOOXOOOOOO.++ooo....OOOOOOOXOOOOOOOXOOOOOO.++...OOOXOOOOOOOXOOO                                                                ",
"OOOOOOOOOOO.ooooo.+++.OOOOOOOOOOOOOOOOOOOOO.++ooo....OOOOOOOOOOO                                                                ",
"XOOOOOOOXO.oooooo++++.OOXOOOOOOOXOOOOOOOXOO.ooooo.+++.OOXOOOOOOO                                                                ",
"OOOOOOOXO..ooo.ooo++.OOXOOOOOOOXOOOOOOOXOO.oooooo++++.OXOOOOOOOX                                                                ",
"OOOOOOOO.+oo...oooo.OOOOOOOOOOOOOOOOOOOOO..ooo.ooo+..OOOOOOOOOOO                                                                ",
"OXOOOOOO.ooooooooo.OOOOOOXOOOOOOOXOOOOOO.+oo...ooo.o.OOOOXOOOOOO                                                                ",
"OOOOOOOOO...+.oooo..OOOOOOOOOOOOOOOOOOOO.oooooooo.oo.OOOOOOOOOOO                                                                ",
"OXOOOOOXOX.+.++oo.oo.OOXOXOOOOOXOXOOOOOXO...+.ooo.ooo.OXOXOOOOOX                                                                ",
"OOOOXOOOOOO......oooo..OOOOOXOOOOOOOXOOOOO.+.++o.ooo..OOOOOOXOOO                                                                ",
"OOOOOOOOOOOOOO.++.ooo.o.OOOOOOOOOOOOOOOOOOO.....+ooooo.OOOOOOOOO                                                                ",
"XOOOOOOOXOOOOO.++o.o.oo.XOOOOOOOXOOOOOOOXOO...+++ooo.oo.XOOOOOOO                                                                ",
"OOOOOOOXOOOOOOO..oo.++.XOOOOOOOXOOOOOOOXOO.+oo.+ooo.o.o.OOOOOOOX                                                                ",
"OOOOOOOOOOOOOO.+ooo...OOOOOOOOOOOOOOOOOOOOO.oo.....+o..OOOOOOOOO                                                                ",
"OXOOOOOOOXOOOOO....OOOOOOXOOOOOOOXOOOOOOOXOO...OOXO..OOOOXOOOOOO                                                                ",
"OOOOOOOOOOOOOOOOOOOOOOOOOOOOOOOOOOOOOOOOOOOOOOOOOOOOOOOOOOOOOOOO                                                                ",
"OXOOOOOXOXOOOOOXOXOOOOOXOXOOOOOXOXOOOOOXOXOOOOOXOXOOOOOXOXOOOOOX                                                                ",
"OOOOXOOOOOOOXOOOOOOOXOOOOOOOXOOOOOOOXOOOOOOOXOOOOOOOXOOOOOOOXOOO                                                                ",
"OOOOOOOOOOOOOOOOOOOOOOOOOOOOOOOOOOOOOOOOOOOOOOOOOOOOOOOOOOOOOOOO                                                                ",
"XOOOOOOOXOOOOOOOXOOOOOOOXOOOOOOOXOOOOOOOXOOOOOOOXOOOOOOOXOOOOOOO                                                                ",
"OOOOOOOXOOOOOOOXOOOOOOOXOOOOOOOXOOOOOOOXOOOOOOOXOOOOOOOXOOOOOOOX                                                                ",
"OOOOOOOOOOOOOOOOOOOOOOOOOOOOOOOOOOOOOOOOOOOOOOOOOOOOOOOOOOOOOOOO                                                                ",
"OXOOOOOOOXOOOOOOOXOOOOOOOXOOOOOOOXOOOOOOOXOOOOOOOXOOOOOOOXOOOOOO                                                                ",
"OOOOOOOOOOOOOOOOOOOOOOOOOOOOOOOOOOOOOOOOOOOOOOOOOOOOOOOOOOOOOOOO                                                                ",
"OXOOOOOXOXOOOOOXOXOOOOOXOXOOOOOXOXOOOOOXOXOOOOOXOXOOOOOXOXOOOOOX                                                                ",
"OOOOXOOOOOOOXOOOOOOOXOOOOOOOXOOOOOOOXOOOOOOOXOOOOOOOXOOOOOOOXOOO                                                                ",
"OOOOOOOOOOOOOOOOOOOOOOOOOOOOOOOOOOOOOOOOOOOOOOOOOOOOOOOOOOOOOOOO                                                                ",
"XOOOOOOOXOOOOOOOXOOOOOOOXOOOOOOOXOOOOOOOXOOOOOOOXOOOOOOOXOOOOOOO                                                                ",
"OOOOOOOXOOOOOOOXOOOOOOOXOOOOOOOXOOOOOOOXOOOOOOOXOOOOOOOXOOOOOOOX                                                                ",
"OOOOOOOOOOOOOOOOOOOOOOOOOOOOOOOOOOOOOOOOOOOOOOOOOOOOOOOOOOOOOOOO                                                                ",
"OXOOOOOOOXOOOOOOOXOOOOOOOXOOOOOOOXOOOOOOOXOOOOOOOXOOOOOOOXOOOOOO                                                                ",
"OOOOOOOOOOOOOOOOOO..OOOOOOOOOOOOOOOOOOOOOOOOOOOOOOOOOOOOOOOOOOOO                                                                ",
"OXOOOOOXOXOOOOO...++.OOXOXOOOOOXOXOOOOOXOXOOOOOXOX..OOOXOXOOOOOX                                                                ",
"OOOOXOOOOOO....ooo++.OOOOOOOXOOOOOOOXOOOOOOOXOO...++.OOOOOOOXOOO                                                                ",
"OOOOOOOOOO.+++.ooooo.OOOOOOOOOOOOOOOOOOOOOO....ooo++.OOOOOOOOOOO                                                                ",
"XOOOOOOOXO.++++oooooo.OOXOOOOOOOXOOOOOOOXO.+++.ooooo.OOOXOOOOOOO                                                                ",
"OOOOOOOXOOO.++ooo.ooo..XOOOOOOOXOOOOOOOXOO.++++oooooo.OXOOOOOOOX                                                                ",
"OOOOOOOOOOOO.oooo...oo+.OOOOOOOOOOOOOOOOOOO..+ooo.ooo..OOOOOOOOO                                                                ",
"OXOOOOOOOXOOO.ooooooooo.OXOOOOOOOXOOOOOOOXO.o.ooo...oo+.OXOOOOOO                                                                ",
"OOOOOOOOOOOO..oooo.+...OOOOOOOOOOOOOOOOOOOO.oo.oooooooo.OOOOOOOO                                                                ",
"OXOOOOOXOXO.oo.oo++.+.OXOXOOOOOXOXOOOOOXOX.ooo.ooo.+...XOXOOOOOX                                                                ",
"OOOOXOOOO..oooo......OOOOOOOXOOOOOOOXOOOOO..ooo.o++.+.OOOOOOXOOO                                                                ",
"OOOOOOOO.o.ooo.++.OOOOOOOOOOOOOOOOOOOOOOO.ooooo+.....OOOOOOOOOOO                                                                ",
"XOOOOOOO.oo.o.o++.OOOOOOXOOOOOOOXOOOOOOO.oo.ooo+++...OOOXOOOOOOO                                                                ",
"OOOOOOOXO.++.oo..OOOOOOXOOOOOOOXOOOOOOOX.o.o.ooo+.oo+.OXOOOOOOOX                                                                ",
"OOOOOOOOOO...ooo+.OOOOOOOOOOOOOOOOOOOOOOO..o+.....oo.OOOOOOOOOOO                                                                ",
"OXOOOOOOOXOOO....XOOOOOOOXOOOOOOOXOOOOOOOXO..OOOO...OOOOOXOOOOOO                                                                ",
"OOOOOOOOOOOOOOOOOOOOOOOOOOOOOOOOOOOOOOOOOOOOOOOOOOOOOOOOOOOOOOOO                                                                ",
"OXOOOOOXOXOOOOOXOXOOOOOXOXOOOOOXOXOOOOOXOXOOOOOXOXOOOOOXOXOOOOOX                                                                ",
"OOOOXOOOOOOOXOOOOOOOXOOOOOOOXOOOOOOOXOOOOOOOXOOOOOOOXOOOOOOOXOOO                                                                ",
"OOOOOOOOOOOOOOOOOOOOOOOOOOOOOOOOOOOOOOOOOOOOOOOOOOOOOOOOOOOOOOOO                                                                ",
"XOOOOOOOXOOOOOOOXOOOOOOOXOOOOOOOXOOOOOOOXOOOOOOOXOOOOOOOXOOOOOOO                                                                ",
"OOOOOOOXOOOOOOOXOOOOOOOXOOOOOOOXOOOOOOOXOOOOOOOXOOOOOOOXOOOOOOOX                                                                ",
"OOOOOOOOOOOOOOOOOOOOOOOOOOOOOOOOOOOOOOOOOOOOOOOOOOOOOOOOOOOOOOOO                                                                ",
"OXOOOOOOOXOOOOOOOXOOOOOOOXOOOOOOOXOOOOOOOXOOOOOOOXOOOOOOOXOOOOOO                                                                "
};
