/* XPM */
static char *tile002_ezgif_com_crop1704896020[] = {
/* columns rows colors chars-per-pixel */
"64 32 4 1 ",
"  c None",
". c gray8",
"X c #EDBA97",
"o c #F9EDF9",
/* pixels */
"                                                                ",
"                                                                ",
"                                                                ",
"                                                                ",
"                                                                ",
"                                                                ",
"                                                                ",
"                                                                ",
"            ..                                                  ",
"           .oo...                           ..                  ",
"           .ooXXX....                      .oo...               ",
"           .XXXXX.ooo.                     .ooXXX....           ",
"          .XXXXXXoooo.                     .XXXXX.ooo.          ",
"         ..XXX.XXXoo.                     .XXXXXXoooo.          ",
"        .oXX...XXXX.                     ..XXX.XXXo..           ",
"        .XXXXXXXXX.                     .oXX...XXX.X.           ",
"         ...o.XXXX..                    .XXXXXXXX.XX.           ",
"          .o.ooXX.XX.                    ...o.XXX.XXX.          ",
"           ......XXXX..                   .o.ooX.XXX..          ",
"              .oo.XXX.X.                   .....oXXXXX.         ",
"              .ooX.X.XX.                   ...oooXXX.XX.        ",
"               ..XX.oo.                   .oXX.oXXX.X.X.        ",
"              .oXXX...                     .XX.....oX..         ",
"               ....                         ...    ..           ",
"                                                                ",
"                                                                ",
"                                                                ",
"                                                                ",
"                                                                ",
"                                                                ",
"                                                                ",
"                                                                "
};
