/* XPM */
static char *tile003_ezgif_com_crop1704896020[] = {
/* columns rows colors chars-per-pixel */
"64 32 4 1 ",
"  c None",
". c gray8",
"X c #EDBA97",
"o c #F9EDF9",
/* pixels */
"                                                                ",
"                                                                ",
"                                                                ",
"                                                                ",
"                                                                ",
"                                                                ",
"                                                                ",
"                                                                ",
"                  ..                                            ",
"               ...oo.                             ..            ",
"           ....XXXoo.                          ...oo.           ",
"          .ooo.XXXXX.                      ....XXXoo.           ",
"          .ooooXXXXXX.                    .ooo.XXXXX.           ",
"           .ooXXX.XXX..                   .ooooXXXXXX.          ",
"            .XXXX...XXo.                   ..oXXX.XXX..         ",
"             .XXXXXXXXX.                   .X.XXX...XXo.        ",
"            ..XXXX.o...                    .XX.XXXXXXXX.        ",
"           .XX.XXoo.o.                    .XXX.XXX.o...         ",
"         ..XXXX......                     ..XXX.Xoo.o.          ",
"        .X.XXX.oo.                       .XXXXXo.....           ",
"        .XX.X.Xoo.                      .XX.XXXooo...           ",
"         .oo.XX..                       .X.X.XXXo.XXo.          ",
"          ...XXXo.                       ..Xo.....XX.           ",
"             ....                          ..    ...            ",
"                                                                ",
"                                                                ",
"                                                                ",
"                                                                ",
"                                                                ",
"                                                                ",
"                                                                ",
"                                                                "
};
