/* XPM */
static char *f2b3110cb274444093ae214ee4b6a725pXLZhWReUzCKhwOn[] = {
/* columns rows colors chars-per-pixel */
"32 32 5 1 ",
"  c #181010",
". c #A8E058",
"X c #A0D0F8",
"o c #F8E8F8",
"O c #FFEFFF",
/* pixels */
"oooooooooooooooooooooooooooooooo",
"o.ooooo.o.ooooo.o.ooooo.o.ooooo.",
"oooo.ooooooo.ooooooo.ooooooo.ooo",
"oooooooooooooooooooooooooooooooo",
".ooooooo.ooooooo.ooooooo.ooooooo",
"ooooooo.ooooooo.ooooooo.ooooooo.",
"oooooooooooooooooooooooooooooooo",
"o.ooooooo.ooooooo.ooooooo.oooooo",
"oooooooooooooooooooooooooooooooo",
"o.ooooo.o.ooooo.o.ooooo.o.ooooo.",
"oooo.oooo.X   ....   ..ooooo.ooo",
"oooooooooX. O      O ..ooooooooo",
".ooooooo..X O      O ..o.ooooooo",
"ooooooo.o.  O.OOOO.O  ..ooooooo.",
"ooooooooo.  O      O  .ooooooooo",
"o.ooooooo   O      O   oo.oooooo",
"ooooooooo   O.OOOO.O   ooooooooo",
"o.ooooo.o   X      X   .o.ooooo.",
"oooo.oooo   X      X   ooooo.ooo",
"oooooooooX  ........  .ooooooooo",
".ooooooo..  .      .  .o.ooooooo",
"ooooooo.o..          ...ooooooo.",
"ooooooooo....      ....ooooooooo",
"o.ooooooo.ooooooo.ooooooo.oooooo",
"oooooooooooooooooooooooooooooooo",
"o.ooooo.o.ooooo.o.ooooo.o.ooooo.",
"oooo.ooooooo.ooooooo.ooooooo.ooo",
"oooooooooooooooooooooooooooooooo",
".ooooooo.ooooooo.ooooooo.ooooooo",
"ooooooo.ooooooo.ooooooo.ooooooo.",
"oooooooooooooooooooooooooooooooo",
"o.ooooooo.ooooooo.ooooooo.oooooo"
};
