/* XPM */
static char *player_left1704884921[] = {
/* columns rows colors chars-per-pixel */
"64 32 4 1 ",
"  c None",
". c gray8",
"X c #EDBA97",
"o c #F9EDF9",
/* pixels */
"                                                                ",
"                                                                ",
"                                                                ",
"                                                                ",
"                                                                ",
"                                                                ",
"                                                                ",
"                                                                ",
"             ......                                             ",
"            .XXXXXX.                         ......             ",
"           .XXXXXXXX.                       .XXXXXX.            ",
"          ..oXXXXXXX.                      .XXXXXXXX.           ",
"         .ooooXXXXX...                    ..oXXXXXXX.           ",
"          ..XXX.......                   .ooooXXXXX...          ",
"           .o.oo......                    ..XXX.......          ",
"           .o.oo.oo..                      .o.oo......          ",
"           .ooooooo.                       .o.oo.oo..           ",
"            .Xooo..X.                      .ooooooo.            ",
"             .....XX.                       .Xooo..X.           ",
"              ..oo.X.                        ......X.           ",
"              ..oo.X.                      ......oo..           ",
"             .XX....                      .XX.XX.oo.X.          ",
"             .XXXX.                        .XX.....XX.          ",
"              ....                          ...    ..           ",
"                                                                ",
"                                                                ",
"                                                                ",
"                                                                ",
"                                                                ",
"                                                                ",
"                                                                ",
"                                                                "
};
