/* XPM */
static char *_7f5fd1009fc4012e5baa72c88db9501JcpaUELBbdH12RQv[] = {
/* columns rows colors chars-per-pixel */
"128 128 4 1 ",
"  c None",
". c gray8",
"X c #EDBA97",
"o c #F9EDF9",
/* pixels */
"                                                                                                                                ",
"                                                                                                                                ",
"                                                                                                                                ",
"                                                                                                                                ",
"                                                                                                                                ",
"                                                                                                                                ",
"                                                                                                                                ",
"                                                                                                                                ",
"             ......                                                          ......                                             ",
"            .XXXXXX.                         ......                         .XXXXXX.                         ......             ",
"           .XXXXXXXX.                       .XXXXXX.                       .XXXXXXXX.                       .XXXXXX.            ",
"           .XXXXXXXX.                      .XXXXXXXX.                      .XXXXXXXX.                      .XXXXXXXX.           ",
"          ...XooooX...                     .XXXXXXXX.                     ...XooooX...                     .XXXXXXXX.           ",
"          ..o......o..                    ...XooooX...                    ..o......o..                    ...XooooX...          ",
"         .o.oooooooo.o.                   ............                   .o.oooooooo.o.                   ............          ",
"         .oooo.oo.oooo.                  .o.oooooooo.o.                  .oooo.oo.oooo.                  .o.oooooooo.o.         ",
"          ..oo.oo.oo..                   .oooo.oo.oooo.                   ..oo.oo.oo..                   .oooo.oo.oooo.         ",
"          ...ooXXoo...                   ...oo.oo.oo..                    ...ooXXoo...                    ..oo.oo.oo...         ",
"         .oo........oo.                  .o..ooXXoo.X.                   .oo........oo.                   .X.ooXXoo..o.         ",
"         .oo........oo.                   ..........o.                   .oo........oo.                   .o..........          ",
"          ...XX..XX...                     ..X....oo..                    ...XX..XX...                    ..oo....X..           ",
"           .X.XXXX.X.                       ...XX.oo.                      .X.XXXX.X.                      .oo.XX...            ",
"           .XXX..XXX.                       .XX.. ..                       .XXX..XXX.                       .. ..XX.            ",
"            ...  ...                         ...                            ...  ...                            ...             ",
"                                                                                                                                ",
"                                                                                                                                ",
"                                                                                                                                ",
"                                                                                                                                ",
"                                                                                                                                ",
"                                                                                                                                ",
"                                                                                                                                ",
"                                                                                                                                ",
"                                                                                                                                ",
"                                                                                                                                ",
"                                                                                                                                ",
"                                                                                                                                ",
"                                                                                                                                ",
"                                                                                                                                ",
"                                                                                                                                ",
"                                                                                                                                ",
"             ......                                                          ......                                             ",
"            .XXXXXX.                         ......                         .XXXXXX.                         ......             ",
"           .XXXXXXXX.                       .XXXXXX.                       .XXXXXXXX.                       .XXXXXX.            ",
"           .XXXXXXXX.                      .XXXXXXXX.                      .XXXXXXXX.                      .XXXXXXXX.           ",
"          ..XXXXXXXX..                     .XXXXXXXX.                     ..XXXXXXXX..                     .XXXXXXXX.           ",
"          ...XXXXXX...                    ..XXXXXXXX..                    ...XXXXXX...                    ..XXXXXXXX..          ",
"         .o..........o.                   ...XXXXXX...                   .o..........o.                   ...XXXXXX...          ",
"         .oo........oo.                  .o..........o.                  .oo........oo.                  .o..........o.         ",
"          ..oo....oo..                   .oo........oo.                   ..oo....oo..                   .oo........oo.         ",
"          ....XXXX....                   ...oo....oo..                    ....XXXX....                    ..oo....oo...         ",
"         .o..X....X..o.                  .o...XXXX....                   .o..X....X..o.                   ....XXXX...o.         ",
"         .o..XXooXX..o.                   ...X....X.oo.                  .o..XXooXX..o.                  .oo.X....X...          ",
"          ....XXXX....                     ..XXooXX.oo.                   ....XXXX....                   .oo.XXooXX..           ",
"           .X......X.                       ..XXXX....                     .X......X.                     ....XXXX..            ",
"           .XXX..XXX.                       .X....                         .XXX..XXX.                         ....X.            ",
"            ...  ...                         ...                            ...  ...                            ...             ",
"                                                                                                                                ",
"                                                                                                                                ",
"                                                                                                                                ",
"                                                                                                                                ",
"                                                                                                                                ",
"                                                                                                                                ",
"                                                                                                                                ",
"                                                                                                                                ",
"                                                                                                                                ",
"                                                                                                                                ",
"                                                                                                                                ",
"                                                                                                                                ",
"                                                                                                                                ",
"                                                                                                                                ",
"                                                                                                                                ",
"                                                                                                                                ",
"             ......                                                                                                             ",
"            .XXXXXX.                         ......                                                                             ",
"           .XXXXXXXX.                       .XXXXXX.                                                                            ",
"          ..oXXXXXXX.                      .XXXXXXXX.                                                                           ",
"         .ooooXXXXX...                    ..oXXXXXXX.                                                                           ",
"          ..XXX.......                   .ooooXXXXX...                                                                          ",
"           .o.oo......                    ..XXX.......                                                                          ",
"           .o.oo.oo..                      .o.oo......                                                                          ",
"           .ooooooo.                       .o.oo.oo..                                                                           ",
"            .Xooo..X.                      .ooooooo.                                                                            ",
"             .....XX.                       .Xooo..X.                                                                           ",
"              ..oo.X.                        ......X.                                                                           ",
"              ..oo.X.                      ......oo..                                                                           ",
"             .XX....                      .XX.XX.oo.X.                                                                          ",
"             .XXXX.                        .XX.....XX.                                                                          ",
"              ....                          ...    ..                                                                           ",
"                                                                                                                                ",
"                                                                                                                                ",
"                                                                                                                                ",
"                                                                                                                                ",
"                                                                                                                                ",
"                                                                                                                                ",
"                                                                                                                                ",
"                                                                                                                                ",
"                                                                                                                                ",
"                                                                                                                                ",
"                                                                                                                                ",
"                                                                                                                                ",
"                                                                                                                                ",
"                                                                                                                                ",
"                                                                                                                                ",
"                                                                                                                                ",
"             ......                                                                                                             ",
"            .XXXXXX.                         ......                                                                             ",
"           .XXXXXXXX.                       .XXXXXX.                                                                            ",
"           .XXXXXXXo..                     .XXXXXXXX.                                                                           ",
"          ...XXXXXoooo.                    .XXXXXXXo..                                                                          ",
"          .......XXX..                    ...XXXXXoooo.                                                                         ",
"          ......oo.o.                     .......XXX..                                                                          ",
"           ..oo.oo.o.                     ......oo.o.                                                                           ",
"            .ooooooo.                      ..oo.oo.o.                                                                           ",
"           .X..oooX.                        .ooooooo.                                                                           ",
"           .XX.....                        .X..oooX.                                                                            ",
"           .X.oo..                         .X......                                                                             ",
"           .X.oo..                         ..oX..X...                                                                           ",
"            ....XX.                       .X.oo.XX.XX.                                                                          ",
"             .XXXX.                       .XX.....XX.                                                                           ",
"              ....                         ..    ...                                                                            ",
"                                                                                                                                ",
"                                                                                                                                ",
"                                                                                                                                ",
"                                                                                                                                ",
"                                                                                                                                ",
"                                                                                                                                ",
"                                                                                                                                ",
"                                                                                                                                "
};
