/* XPM */
static char *_79478f449684f0f858c17a85592f142oU7BQDXBHeXk9eau[] = {
/* columns rows colors chars-per-pixel */
"32 32 5 1 ",
"  c gray8",
". c #A8E058",
"X c #EDBA97",
"o c #F8E8F8",
"O c #F9EDF9",
/* pixels */
"oooooooooooooooooooooooooooooooo",
"o.ooooo.o.ooooo.o.ooooo.o.ooooo.",
"oooo.ooooooo.ooooooo.ooooooo.ooo",
"oooooooooooooooooooooooooooooooo",
".ooooooo.ooooooo.ooooooo.ooooooo",
"ooooooo.ooooooo.ooooooo.ooooooo.",
"oooooooooooooooooooooooooooooooo",
"o.ooooooo.ooooooo.ooooooo.oooooo",
"ooooooooooooo      ooooooooooooo",
"o.ooooo.o.oo XXXXXX ooo.o.ooooo.",
"oooo.oooooo XXXXXXXX ooooooo.ooo",
"ooooooooooo XXXXXXXX ooooooooooo",
".ooooooo.o   XOOOOX   oo.ooooooo",
"ooooooo.oo  O      O  o.ooooooo.",
"ooooooooo O OOOOOOOO O ooooooooo",
"o.ooooooo OOOO OO OOOO oo.oooooo",
"oooooooooo  OO OO OO  oooooooooo",
"o.ooooo.o.   OOXXOO   o.o.ooooo.",
"oooo.oooo OO        OO ooooo.ooo",
"ooooooooo OO        OO ooooooooo",
".ooooooo.o   XX  XX   oo.ooooooo",
"ooooooo.ooo X XXXX X oo.ooooooo.",
"ooooooooooo XXX  XXX ooooooooooo",
"o.ooooooo.oo   oo   ooooo.oooooo",
"oooooooooooooooooooooooooooooooo",
"o.ooooo.o.ooooo.o.ooooo.o.ooooo.",
"oooo.ooooooo.ooooooo.ooooooo.ooo",
"oooooooooooooooooooooooooooooooo",
".ooooooo.ooooooo.ooooooo.ooooooo",
"ooooooo.ooooooo.ooooooo.ooooooo.",
"oooooooooooooooooooooooooooooooo",
"o.ooooooo.ooooooo.ooooooo.oooooo"
};
