/* XPM */
static char *player_right1704884921[] = {
/* columns rows colors chars-per-pixel */
"64 32 4 1 ",
"  c None",
". c gray8",
"X c #EDBA97",
"o c #F9EDF9",
/* pixels */
"                                                                ",
"                                                                ",
"                                                                ",
"                                                                ",
"                                                                ",
"                                                                ",
"                                                                ",
"                                                                ",
"             ......                                             ",
"            .XXXXXX.                         ......             ",
"           .XXXXXXXX.                       .XXXXXX.            ",
"           .XXXXXXXo..                     .XXXXXXXX.           ",
"          ...XXXXXoooo.                    .XXXXXXXo..          ",
"          .......XXX..                    ...XXXXXoooo.         ",
"          ......oo.o.                     .......XXX..          ",
"           ..oo.oo.o.                     ......oo.o.           ",
"            .ooooooo.                      ..oo.oo.o.           ",
"           .X..oooX.                        .ooooooo.           ",
"           .XX.....                        .X..oooX.            ",
"           .X.oo..                         .X......             ",
"           .X.oo..                         ..oX..X...           ",
"            ....XX.                       .X.oo.XX.XX.          ",
"             .XXXX.                       .XX.....XX.           ",
"              ....                         ..    ...            ",
"                                                                ",
"                                                                ",
"                                                                ",
"                                                                ",
"                                                                ",
"                                                                ",
"                                                                ",
"                                                                "
};
