/* XPM */
static char *_a35b9d7eee647c8f733c351c4032246m13CzDJ1w5tXcqql[] = {
/* columns rows colors chars-per-pixel */
"32 32 4 1 ",
"  c None",
". c gray8",
"X c #EDBA97",
"o c #F9EDF9",
/* pixels */
"                                ",
"                                ",
"                                ",
"                                ",
"                                ",
"                                ",
"                                ",
"                                ",
"             ......             ",
"            .XXXXXX.            ",
"           .XXXXXXXX.           ",
"           .XXXXXXXX.           ",
"          ...XooooX...          ",
"          ..o......o..          ",
"         .o.oooooooo.o.         ",
"         .oooo.oo.oooo.         ",
"          ..oo.oo.oo..          ",
"          ...ooXXoo...          ",
"         .oo........oo.         ",
"         .oo........oo.         ",
"          ...XX..XX...          ",
"           .X.XXXX.X.           ",
"           .XXX..XXX.           ",
"            ...  ...            ",
"                                ",
"                                ",
"                                ",
"                                ",
"                                ",
"                                ",
"                                ",
"                                "
};
