/* XPM */
static char *_6332f65b05946b0e1fbfe906446aad7bho6pa9f7GQ06YMH[] = {
/* columns rows colors chars-per-pixel */
"128 128 6 1 ",
"  c None",
". c gray8",
"X c #A8E058",
"o c #EDBA97",
"O c #F8E8F8",
"+ c #F9EDF9",
/* pixels */
"OOOOOOOOOOOOOOOOOOOOOOOOOOOOOOOOOOOOOOOOOOOOOOOOOOOOOOOOOOOOOOOOOOOOOOOOOOOOOOOOOOOOOOOOOOOOOOOOOOOOOOOOOOOOOOOOOOOOOOOOOOOOOOOO",
"OXOOOOOXOXOOOOOXOXOOOOOXOXOOOOOXOXOOOOOXOXOOOOOXOXOOOOOXOXOOOOOXOXOOOOOXOXOOOOOXOXOOOOOXOXOOOOOXOXOOOOOXOXOOOOOXOXOOOOOXOXOOOOOX",
"OOOOXOOOOOOOXOOOOOOOXOOOOOOOXOOOOOOOXOOOOOOOXOOOOOOOXOOOOOOOXOOOOOOOXOOOOOOOXOOOOOOOXOOOOOOOXOOOOOOOXOOOOOOOXOOOOOOOXOOOOOOOXOOO",
"OOOOOOOOOOOOOOOOOOOOOOOOOOOOOOOOOOOOOOOOOOOOOOOOOOOOOOOOOOOOOOOOOOOOOOOOOOOOOOOOOOOOOOOOOOOOOOOOOOOOOOOOOOOOOOOOOOOOOOOOOOOOOOOO",
"XOOOOOOOXOOOOOOOXOOOOOOOXOOOOOOOXOOOOOOOXOOOOOOOXOOOOOOOXOOOOOOOXOOOOOOOXOOOOOOOXOOOOOOOXOOOOOOOXOOOOOOOXOOOOOOOXOOOOOOOXOOOOOOO",
"OOOOOOOXOOOOOOOXOOOOOOOXOOOOOOOXOOOOOOOXOOOOOOOXOOOOOOOXOOOOOOOXOOOOOOOXOOOOOOOXOOOOOOOXOOOOOOOXOOOOOOOXOOOOOOOXOOOOOOOXOOOOOOOX",
"OOOOOOOOOOOOOOOOOOOOOOOOOOOOOOOOOOOOOOOOOOOOOOOOOOOOOOOOOOOOOOOOOOOOOOOOOOOOOOOOOOOOOOOOOOOOOOOOOOOOOOOOOOOOOOOOOOOOOOOOOOOOOOOO",
"OXOOOOOOOXOOOOOOOXOOOOOOOXOOOOOOOXOOOOOOOXOOOOOOOXOOOOOOOXOOOOOOOXOOOOOOOXOOOOOOOXOOOOOOOXOOOOOOOXOOOOOOOXOOOOOOOXOOOOOOOXOOOOOO",
"OOOOOOOOOOOOO......OOOOOOOOOOOOOOOOOOOOOOOOOOOOOOOOOOOOOOOOOOOOOOOOOOOOOOOOOO......OOOOOOOOOOOOOOOOOOOOOOOOOOOOOOOOOOOOOOOOOOOOO",
"OXOOOOOXOXOO.oooooo.OOOXOXOOOOOXOXOOOOOXOXOOO......OOOOXOXOOOOOXOXOOOOOXOXOO.oooooo.OOOXOXOOOOOXOXOOOOOXOXOOO......OOOOXOXOOOOOX",
"OOOOXOOOOOO.oooooooo.OOOOOOOXOOOOOOOXOOOOOOO.oooooo.XOOOOOOOXOOOOOOOXOOOOOO.oooooooo.OOOOOOOXOOOOOOOXOOOOOOO.oooooo.XOOOOOOOXOOO",
"OOOOOOOOOOO.oooooooo.OOOOOOOOOOOOOOOOOOOOOO.oooooooo.OOOOOOOOOOOOOOOOOOOOOO.oooooooo.OOOOOOOOOOOOOOOOOOOOOO.oooooooo.OOOOOOOOOOO",
"XOOOOOOOXO...o++++o...OOXOOOOOOOXOOOOOOOXOO.oooooooo.OOOXOOOOOOOXOOOOOOOXO...o++++o...OOXOOOOOOOXOOOOOOOXOO.oooooooo.OOOXOOOOOOO",
"OOOOOOOXOO..+......+..OXOOOOOOOXOOOOOOOXOO...o++++o...OXOOOOOOOXOOOOOOOXOO..+......+..OXOOOOOOOXOOOOOOOXOO...o++++o...OXOOOOOOOX",
"OOOOOOOOO.+.++++++++.+.OOOOOOOOOOOOOOOOOOO............OOOOOOOOOOOOOOOOOOO.+.++++++++.+.OOOOOOOOOOOOOOOOOOO............OOOOOOOOOO",
"OXOOOOOOO.++++.++.++++.OOXOOOOOOOXOOOOOOO.+.++++++++.+.OOXOOOOOOOXOOOOOOO.++++.++.++++.OOXOOOOOOOXOOOOOOO.+.++++++++.+.OOXOOOOOO",
"OOOOOOOOOO..++.++.++..OOOOOOOOOOOOOOOOOOO.++++.++.++++.OOOOOOOOOOOOOOOOOOO..++.++.++..OOOOOOOOOOOOOOOOOOO.++++.++.++++.OOOOOOOOO",
"OXOOOOOXOX...++oo++...OXOXOOOOOXOXOOOOOXO...++.++.++..OXOXOOOOOXOXOOOOOXOX...++oo++...OXOXOOOOOXOXOOOOOXOX..++.++.++...XOXOOOOOX",
"OOOOXOOOO.++........++.OOOOOXOOOOOOOXOOOO.+..++oo++.o.OOOOOOXOOOOOOOXOOOO.++........++.OOOOOXOOOOOOOXOOOOO.o.++oo++..+.OOOOOXOOO",
"OOOOOOOOO.++........++.OOOOOOOOOOOOOOOOOOO..........+.OOOOOOOOOOOOOOOOOOO.++........++.OOOOOOOOOOOOOOOOOOO.+..........OOOOOOOOOO",
"XOOOOOOOXO...oo..oo...OOXOOOOOOOXOOOOOOOXOO..o....++..OOXOOOOOOOXOOOOOOOXO...oo..oo...OOXOOOOOOOXOOOOOOOXO..++....o..OOOXOOOOOOO",
"OOOOOOOXOOO.o.oooo.o.OOXOOOOOOOXOOOOOOOXOOOO...oo.++.OOXOOOOOOOXOOOOOOOXOOO.o.oooo.o.OOXOOOOOOOXOOOOOOOXOOO.++.oo...OOOXOOOOOOOX",
"OOOOOOOOOOO.ooo..ooo.OOOOOOOOOOOOOOOOOOOOOOO.oo..O..OOOOOOOOOOOOOOOOOOOOOOO.ooo..ooo.OOOOOOOOOOOOOOOOOOOOOOO..O..oo.OOOOOOOOOOOO",
"OXOOOOOOOXOO...OO...OOOOOXOOOOOOOXOOOOOOOXOOO...OXOOOOOOOXOOOOOOOXOOOOOOOXOO...OO...OOOOOXOOOOOOOXOOOOOOOXOOOOOO...OOOOOOXOOOOOO",
"OOOOOOOOOOOOOOOOOOOOOOOOOOOOOOOOOOOOOOOOOOOOOOOOOOOOOOOOOOOOOOOOOOOOOOOOOOOOOOOOOOOOOOOOOOOOOOOOOOOOOOOOOOOOOOOOOOOOOOOOOOOOOOOO",
"OXOOOOOXOXOOOOOXOXOOOOOXOXOOOOOXOXOOOOOXOXOOOOOXOXOOOOOXOXOOOOOXOXOOOOOXOXOOOOOXOXOOOOOXOXOOOOOXOXOOOOOXOXOOOOOXOXOOOOOXOXOOOOOX",
"OOOOXOOOOOOOXOOOOOOOXOOOOOOOXOOOOOOOXOOOOOOOXOOOOOOOXOOOOOOOXOOOOOOOXOOOOOOOXOOOOOOOXOOOOOOOXOOOOOOOXOOOOOOOXOOOOOOOXOOOOOOOXOOO",
"OOOOOOOOOOOOOOOOOOOOOOOOOOOOOOOOOOOOOOOOOOOOOOOOOOOOOOOOOOOOOOOOOOOOOOOOOOOOOOOOOOOOOOOOOOOOOOOOOOOOOOOOOOOOOOOOOOOOOOOOOOOOOOOO",
"XOOOOOOOXOOOOOOOXOOOOOOOXOOOOOOOXOOOOOOOXOOOOOOOXOOOOOOOXOOOOOOOXOOOOOOOXOOOOOOOXOOOOOOOXOOOOOOOXOOOOOOOXOOOOOOOXOOOOOOOXOOOOOOO",
"OOOOOOOXOOOOOOOXOOOOOOOXOOOOOOOXOOOOOOOXOOOOOOOXOOOOOOOXOOOOOOOXOOOOOOOXOOOOOOOXOOOOOOOXOOOOOOOXOOOOOOOXOOOOOOOXOOOOOOOXOOOOOOOX",
"OOOOOOOOOOOOOOOOOOOOOOOOOOOOOOOOOOOOOOOOOOOOOOOOOOOOOOOOOOOOOOOOOOOOOOOOOOOOOOOOOOOOOOOOOOOOOOOOOOOOOOOOOOOOOOOOOOOOOOOOOOOOOOOO",
"OXOOOOOOOXOOOOOOOXOOOOOOOXOOOOOOOXOOOOOOOXOOOOOOOXOOOOOOOXOOOOOOOXOOOOOOOXOOOOOOOXOOOOOOOXOOOOOOOXOOOOOOOXOOOOOOOXOOOOOOOXOOOOOO",
"OOOOOOOOOOOOOOOOOOOOOOOOOOOOOOOOOOOOOOOOOOOOOOOOOOOOOOOOOOOOOOOOOOOOOOOOOOOOOOOOOOOOOOOOOOOOOOOOOOOOOOOOOOOOOOOOOOOOOOOOOOOOOOOO",
"OXOOOOOXOXOOOOOXOXOOOOOXOXOOOOOXOXOOOOOXOXOOOOOXOXOOOOOXOXOOOOOXOXOOOOOXOXOOOOOXOXOOOOOXOXOOOOOXOXOOOOOXOXOOOOOXOXOOOOOXOXOOOOOX",
"OOOOXOOOOOOOXOOOOOOOXOOOOOOOXOOOOOOOXOOOOOOOXOOOOOOOXOOOOOOOXOOOOOOOXOOOOOOOXOOOOOOOXOOOOOOOXOOOOOOOXOOOOOOOXOOOOOOOXOOOOOOOXOOO",
"OOOOOOOOOOOOOOOOOOOOOOOOOOOOOOOOOOOOOOOOOOOOOOOOOOOOOOOOOOOOOOOOOOOOOOOOOOOOOOOOOOOOOOOOOOOOOOOOOOOOOOOOOOOOOOOOOOOOOOOOOOOOOOOO",
"XOOOOOOOXOOOOOOOXOOOOOOOXOOOOOOOXOOOOOOOXOOOOOOOXOOOOOOOXOOOOOOOXOOOOOOOXOOOOOOOXOOOOOOOXOOOOOOOXOOOOOOOXOOOOOOOXOOOOOOOXOOOOOOO",
"OOOOOOOXOOOOOOOXOOOOOOOXOOOOOOOXOOOOOOOXOOOOOOOXOOOOOOOXOOOOOOOXOOOOOOOXOOOOOOOXOOOOOOOXOOOOOOOXOOOOOOOXOOOOOOOXOOOOOOOXOOOOOOOX",
"OOOOOOOOOOOOOOOOOOOOOOOOOOOOOOOOOOOOOOOOOOOOOOOOOOOOOOOOOOOOOOOOOOOOOOOOOOOOOOOOOOOOOOOOOOOOOOOOOOOOOOOOOOOOOOOOOOOOOOOOOOOOOOOO",
"OXOOOOOOOXOOOOOOOXOOOOOOOXOOOOOOOXOOOOOOOXOOOOOOOXOOOOOOOXOOOOOOOXOOOOOOOXOOOOOOOXOOOOOOOXOOOOOOOXOOOOOOOXOOOOOOOXOOOOOOOXOOOOOO",
"OOOOOOOOOOOOO......OOOOOOOOOOOOOOOOOOOOOOOOOOOOOOOOOOOOOOOOOOOOOOOOOOOOOOOOOO......OOOOOOOOOOOOOOOOOOOOOOOOOOOOOOOOOOOOOOOOOOOOO",
"OXOOOOOXOXOO.oooooo.OOOXOXOOOOOXOXOOOOOXOXOOO......OOOOXOXOOOOOXOXOOOOOXOXOO.oooooo.OOOXOXOOOOOXOXOOOOOXOXOOO......OOOOXOXOOOOOX",
"OOOOXOOOOOO.oooooooo.OOOOOOOXOOOOOOOXOOOOOOO.oooooo.XOOOOOOOXOOOOOOOXOOOOOO.oooooooo.OOOOOOOXOOOOOOOXOOOOOOO.oooooo.XOOOOOOOXOOO",
"OOOOOOOOOOO.oooooooo.OOOOOOOOOOOOOOOOOOOOOO.oooooooo.OOOOOOOOOOOOOOOOOOOOOO.oooooooo.OOOOOOOOOOOOOOOOOOOOOO.oooooooo.OOOOOOOOOOO",
"XOOOOOOOXO..oooooooo..OOXOOOOOOOXOOOOOOOXOO.oooooooo.OOOXOOOOOOOXOOOOOOOXO..oooooooo..OOXOOOOOOOXOOOOOOOXOO.oooooooo.OOOXOOOOOOO",
"OOOOOOOXOO...oooooo...OXOOOOOOOXOOOOOOOXOO..oooooooo..OXOOOOOOOXOOOOOOOXOO...oooooo...OXOOOOOOOXOOOOOOOXOO..oooooooo..OXOOOOOOOX",
"OOOOOOOOO.+..........+.OOOOOOOOOOOOOOOOOOO...oooooo...OOOOOOOOOOOOOOOOOOO.+..........+.OOOOOOOOOOOOOOOOOOO...oooooo...OOOOOOOOOO",
"OXOOOOOOO.++........++.OOXOOOOOOOXOOOOOOO.+..........+.OOXOOOOOOOXOOOOOOO.++........++.OOXOOOOOOOXOOOOOOO.+..........+.OOXOOOOOO",
"OOOOOOOOOO..++....++..OOOOOOOOOOOOOOOOOOO.++........++.OOOOOOOOOOOOOOOOOOO..++....++..OOOOOOOOOOOOOOOOOOO.++........++.OOOOOOOOO",
"OXOOOOOXOX....oooo....OXOXOOOOOXOXOOOOOXO...++....++..OXOXOOOOOXOXOOOOOXOX....oooo....OXOXOOOOOXOXOOOOOXOX..++....++...XOXOOOOOX",
"OOOOXOOOO.+..o....o..+.OOOOOXOOOOOOOXOOOO.+...oooo....OOOOOOXOOOOOOOXOOOO.+..o....o..+.OOOOOXOOOOOOOXOOOOO....oooo...+.OOOOOXOOO",
"OOOOOOOOO.+..oo++oo..+.OOOOOOOOOOOOOOOOOOO...o....o.++.OOOOOOOOOOOOOOOOOO.+..oo++oo..+.OOOOOOOOOOOOOOOOOO.++.o....o...OOOOOOOOOO",
"XOOOOOOOXO....oooo....OOXOOOOOOOXOOOOOOOXOO..oo++oo.++.OXOOOOOOOXOOOOOOOXO....oooo....OOXOOOOOOOXOOOOOOOX.++.oo++oo..OOOXOOOOOOO",
"OOOOOOOXOOO.o......o.OOXOOOOOOOXOOOOOOOXOOOO..oooo....OXOOOOOOOXOOOOOOOXOOO.o......o.OOXOOOOOOOXOOOOOOOXOO....oooo..OOOXOOOOOOOX",
"OOOOOOOOOOO.ooo..ooo.OOOOOOOOOOOOOOOOOOOOOOO.o....OOOOOOOOOOOOOOOOOOOOOOOOO.ooo..ooo.OOOOOOOOOOOOOOOOOOOOOOOOO....o.OOOOOOOOOOOO",
"OXOOOOOOOXOO...OO...OOOOOXOOOOOOOXOOOOOOOXOOO...OXOOOOOOOXOOOOOOOXOOOOOOOXOO...OO...OOOOOXOOOOOOOXOOOOOOOXOOOOOO...OOOOOOXOOOOOO",
"OOOOOOOOOOOOOOOOOOOOOOOOOOOOOOOOOOOOOOOOOOOOOOOOOOOOOOOOOOOOOOOOOOOOOOOOOOOOOOOOOOOOOOOOOOOOOOOOOOOOOOOOOOOOOOOOOOOOOOOOOOOOOOOO",
"OXOOOOOXOXOOOOOXOXOOOOOXOXOOOOOXOXOOOOOXOXOOOOOXOXOOOOOXOXOOOOOXOXOOOOOXOXOOOOOXOXOOOOOXOXOOOOOXOXOOOOOXOXOOOOOXOXOOOOOXOXOOOOOX",
"OOOOXOOOOOOOXOOOOOOOXOOOOOOOXOOOOOOOXOOOOOOOXOOOOOOOXOOOOOOOXOOOOOOOXOOOOOOOXOOOOOOOXOOOOOOOXOOOOOOOXOOOOOOOXOOOOOOOXOOOOOOOXOOO",
"OOOOOOOOOOOOOOOOOOOOOOOOOOOOOOOOOOOOOOOOOOOOOOOOOOOOOOOOOOOOOOOOOOOOOOOOOOOOOOOOOOOOOOOOOOOOOOOOOOOOOOOOOOOOOOOOOOOOOOOOOOOOOOOO",
"XOOOOOOOXOOOOOOOXOOOOOOOXOOOOOOOXOOOOOOOXOOOOOOOXOOOOOOOXOOOOOOOXOOOOOOOXOOOOOOOXOOOOOOOXOOOOOOOXOOOOOOOXOOOOOOOXOOOOOOOXOOOOOOO",
"OOOOOOOXOOOOOOOXOOOOOOOXOOOOOOOXOOOOOOOXOOOOOOOXOOOOOOOXOOOOOOOXOOOOOOOXOOOOOOOXOOOOOOOXOOOOOOOXOOOOOOOXOOOOOOOXOOOOOOOXOOOOOOOX",
"OOOOOOOOOOOOOOOOOOOOOOOOOOOOOOOOOOOOOOOOOOOOOOOOOOOOOOOOOOOOOOOOOOOOOOOOOOOOOOOOOOOOOOOOOOOOOOOOOOOOOOOOOOOOOOOOOOOOOOOOOOOOOOOO",
"OXOOOOOOOXOOOOOOOXOOOOOOOXOOOOOOOXOOOOOOOXOOOOOOOXOOOOOOOXOOOOOOOXOOOOOOOXOOOOOOOXOOOOOOOXOOOOOOOXOOOOOOOXOOOOOOOXOOOOOOOXOOOOOO",
"OOOOOOOOOOOOOOOOOOOOOOOOOOOOOOOOOOOOOOOOOOOOOOOOOOOOOOOOOOOOOOOO                                                                ",
"OXOOOOOXOXOOOOOXOXOOOOOXOXOOOOOXOXOOOOOXOXOOOOOXOXOOOOOXOXOOOOOX                                                                ",
"OOOOXOOOOOOOXOOOOOOOXOOOOOOOXOOOOOOOXOOOOOOOXOOOOOOOXOOOOOOOXOOO                                                                ",
"OOOOOOOOOOOOOOOOOOOOOOOOOOOOOOOOOOOOOOOOOOOOOOOOOOOOOOOOOOOOOOOO                                                                ",
"XOOOOOOOXOOOOOOOXOOOOOOOXOOOOOOOXOOOOOOOXOOOOOOOXOOOOOOOXOOOOOOO                                                                ",
"OOOOOOOXOOOOOOOXOOOOOOOXOOOOOOOXOOOOOOOXOOOOOOOXOOOOOOOXOOOOOOOX                                                                ",
"OOOOOOOOOOOOOOOOOOOOOOOOOOOOOOOOOOOOOOOOOOOOOOOOOOOOOOOOOOOOOOOO                                                                ",
"OXOOOOOOOXOOOOOOOXOOOOOOOXOOOOOOOXOOOOOOOXOOOOOOOXOOOOOOOXOOOOOO                                                                ",
"OOOOOOOOOOOOO......OOOOOOOOOOOOOOOOOOOOOOOOOOOOOOOOOOOOOOOOOOOOO                                                                ",
"OXOOOOOXOXOO.oooooo.OOOXOXOOOOOXOXOOOOOXOXOOO......OOOOXOXOOOOOX                                                                ",
"OOOOXOOOOOO.oooooooo.OOOOOOOXOOOOOOOXOOOOOOO.oooooo.XOOOOOOOXOOO                                                                ",
"OOOOOOOOOO..+ooooooo.OOOOOOOOOOOOOOOOOOOOOO.oooooooo.OOOOOOOOOOO                                                                ",
"XOOOOOOOX.++++ooooo...OOXOOOOOOOXOOOOOOOXO..+ooooooo.OOOXOOOOOOO                                                                ",
"OOOOOOOXOO..ooo.......OXOOOOOOOXOOOOOOOXO.++++ooooo...OXOOOOOOOX                                                                ",
"OOOOOOOOOOO.+.++......OOOOOOOOOOOOOOOOOOOO..ooo.......OOOOOOOOOO                                                                ",
"OXOOOOOOOXO.+.++.++..OOOOXOOOOOOOXOOOOOOOXO.+.++......OOOXOOOOOO                                                                ",
"OOOOOOOOOOO.+++++++.OOOOOOOOOOOOOOOOOOOOOOO.+.++.++..OOOOOOOOOOO                                                                ",
"OXOOOOOXOXOO.o+++..o.OOXOXOOOOOXOXOOOOOXOXO.+++++++.OOOXOXOOOOOX                                                                ",
"OOOOXOOOOOOOX.....oo.OOOOOOOXOOOOOOOXOOOOOOO.o+++..o.OOOOOOOXOOO                                                                ",
"OOOOOOOOOOOOOO..++.o.OOOOOOOOOOOOOOOOOOOOOOOO......o.OOOOOOOOOOO                                                                ",
"XOOOOOOOXOOOOO..++.o.OOOXOOOOOOOXOOOOOOOXOO......++..OOOXOOOOOOO                                                                ",
"OOOOOOOXOOOOO.oo....OOOXOOOOOOOXOOOOOOOXOO.oo.oo.++.o.OXOOOOOOOX                                                                ",
"OOOOOOOOOOOOO.oooo.OOOOOOOOOOOOOOOOOOOOOOOO.oo.....oo.OOOOOOOOOO                                                                ",
"OXOOOOOOOXOOOO....OOOOOOOXOOOOOOOXOOOOOOOXOO...OOXO..OOOOXOOOOOO                                                                ",
"OOOOOOOOOOOOOOOOOOOOOOOOOOOOOOOOOOOOOOOOOOOOOOOOOOOOOOOOOOOOOOOO                                                                ",
"OXOOOOOXOXOOOOOXOXOOOOOXOXOOOOOXOXOOOOOXOXOOOOOXOXOOOOOXOXOOOOOX                                                                ",
"OOOOXOOOOOOOXOOOOOOOXOOOOOOOXOOOOOOOXOOOOOOOXOOOOOOOXOOOOOOOXOOO                                                                ",
"OOOOOOOOOOOOOOOOOOOOOOOOOOOOOOOOOOOOOOOOOOOOOOOOOOOOOOOOOOOOOOOO                                                                ",
"XOOOOOOOXOOOOOOOXOOOOOOOXOOOOOOOXOOOOOOOXOOOOOOOXOOOOOOOXOOOOOOO                                                                ",
"OOOOOOOXOOOOOOOXOOOOOOOXOOOOOOOXOOOOOOOXOOOOOOOXOOOOOOOXOOOOOOOX                                                                ",
"OOOOOOOOOOOOOOOOOOOOOOOOOOOOOOOOOOOOOOOOOOOOOOOOOOOOOOOOOOOOOOOO                                                                ",
"OXOOOOOOOXOOOOOOOXOOOOOOOXOOOOOOOXOOOOOOOXOOOOOOOXOOOOOOOXOOOOOO                                                                ",
"OOOOOOOOOOOOOOOOOOOOOOOOOOOOOOOOOOOOOOOOOOOOOOOOOOOOOOOOOOOOOOOO                                                                ",
"OXOOOOOXOXOOOOOXOXOOOOOXOXOOOOOXOXOOOOOXOXOOOOOXOXOOOOOXOXOOOOOX                                                                ",
"OOOOXOOOOOOOXOOOOOOOXOOOOOOOXOOOOOOOXOOOOOOOXOOOOOOOXOOOOOOOXOOO                                                                ",
"OOOOOOOOOOOOOOOOOOOOOOOOOOOOOOOOOOOOOOOOOOOOOOOOOOOOOOOOOOOOOOOO                                                                ",
"XOOOOOOOXOOOOOOOXOOOOOOOXOOOOOOOXOOOOOOOXOOOOOOOXOOOOOOOXOOOOOOO                                                                ",
"OOOOOOOXOOOOOOOXOOOOOOOXOOOOOOOXOOOOOOOXOOOOOOOXOOOOOOOXOOOOOOOX                                                                ",
"OOOOOOOOOOOOOOOOOOOOOOOOOOOOOOOOOOOOOOOOOOOOOOOOOOOOOOOOOOOOOOOO                                                                ",
"OXOOOOOOOXOOOOOOOXOOOOOOOXOOOOOOOXOOOOOOOXOOOOOOOXOOOOOOOXOOOOOO                                                                ",
"OOOOOOOOOOOOO......OOOOOOOOOOOOOOOOOOOOOOOOOOOOOOOOOOOOOOOOOOOOO                                                                ",
"OXOOOOOXOXOO.oooooo.OOOXOXOOOOOXOXOOOOOXOXOOO......OOOOXOXOOOOOX                                                                ",
"OOOOXOOOOOO.oooooooo.OOOOOOOXOOOOOOOXOOOOOOO.oooooo.XOOOOOOOXOOO                                                                ",
"OOOOOOOOOOO.ooooooo+..OOOOOOOOOOOOOOOOOOOOO.oooooooo.OOOOOOOOOOO                                                                ",
"XOOOOOOOXO...ooooo++++.OXOOOOOOOXOOOOOOOXOO.ooooooo+..OOXOOOOOOO                                                                ",
"OOOOOOOXOO.......ooo..OXOOOOOOOXOOOOOOOXOO...ooooo++++.XOOOOOOOX                                                                ",
"OOOOOOOOOO......++.+.OOOOOOOOOOOOOOOOOOOOO.......ooo..OOOOOOOOOO                                                                ",
"OXOOOOOOOXO..++.++.+.OOOOXOOOOOOOXOOOOOOOX......++.+.OOOOXOOOOOO                                                                ",
"OOOOOOOOOOOO.+++++++.OOOOOOOOOOOOOOOOOOOOOO..++.++.+.OOOOOOOOOOO                                                                ",
"OXOOOOOXOXO.o..+++o.OOOXOXOOOOOXOXOOOOOXOXOO.+++++++.OOXOXOOOOOX                                                                ",
"OOOOXOOOOOO.oo.....OXOOOOOOOXOOOOOOOXOOOOOO.o..+++o.XOOOOOOOXOOO                                                                ",
"OOOOOOOOOOO.o.++..OOOOOOOOOOOOOOOOOOOOOOOOO.o......OOOOOOOOOOOOO                                                                ",
"XOOOOOOOXOO.o.++..OOOOOOXOOOOOOOXOOOOOOOXOO..+o..o...OOOXOOOOOOO                                                                ",
"OOOOOOOXOOOO....oo.OOOOXOOOOOOOXOOOOOOOXOO.o.++.oo.oo.OXOOOOOOOX                                                                ",
"OOOOOOOOOOOOO.oooo.OOOOOOOOOOOOOOOOOOOOOOO.oo.....oo.OOOOOOOOOOO                                                                ",
"OXOOOOOOOXOOOO....OOOOOOOXOOOOOOOXOOOOOOOXO..OOOO...OOOOOXOOOOOO                                                                ",
"OOOOOOOOOOOOOOOOOOOOOOOOOOOOOOOOOOOOOOOOOOOOOOOOOOOOOOOOOOOOOOOO                                                                ",
"OXOOOOOXOXOOOOOXOXOOOOOXOXOOOOOXOXOOOOOXOXOOOOOXOXOOOOOXOXOOOOOX                                                                ",
"OOOOXOOOOOOOXOOOOOOOXOOOOOOOXOOOOOOOXOOOOOOOXOOOOOOOXOOOOOOOXOOO                                                                ",
"OOOOOOOOOOOOOOOOOOOOOOOOOOOOOOOOOOOOOOOOOOOOOOOOOOOOOOOOOOOOOOOO                                                                ",
"XOOOOOOOXOOOOOOOXOOOOOOOXOOOOOOOXOOOOOOOXOOOOOOOXOOOOOOOXOOOOOOO                                                                ",
"OOOOOOOXOOOOOOOXOOOOOOOXOOOOOOOXOOOOOOOXOOOOOOOXOOOOOOOXOOOOOOOX                                                                ",
"OOOOOOOOOOOOOOOOOOOOOOOOOOOOOOOOOOOOOOOOOOOOOOOOOOOOOOOOOOOOOOOO                                                                ",
"OXOOOOOOOXOOOOOOOXOOOOOOOXOOOOOOOXOOOOOOOXOOOOOOOXOOOOOOOXOOOOOO                                                                "
};
