/* XPM */
static char *acc33a738c024b6abe59550a53746e61CX4Vk1OZka5QVAJ4[] = {
/* columns rows colors chars-per-pixel */
"32 32 6 1 ",
"  c #555555",
". c #F8E8F8",
"X c #181010",
"o c #807098",
"O c #F0B088",
"+ c white",
/* pixels */
"                                ",
" .............XXXo..............",
" ...........XXOOOOXX............",
" .........XXOOOOOOOOX...........",
" .......XXoooOoOOOOOX...........",
" ......XooooooOoOOOOOo..........",
" .....XooooooooOoOOOOX..........",
" .....XoooooooOoOoOOOXXX........",
" .....Xooooooooooooo....X.......",
" ......ooXXXoooooo....XX........",
" ......XoooooooXXXooXX..........",
" ......XXXXXXXXXX.XOXX..........",
" ......XXXXXXXXXXOX.X...........",
" .......XXXXXXXXXOX..o..........",
" .......oXXXXXXXoXO..X..........",
" ........oXXXXoOOOOOX...........",
" .....oXXXXoooXXooXo............",
" ...oXOOOOOXXXooXX..............",
" ..oOoOOOOOOOXXoX.Xo............",
" ..XoOoOoOoOXXoXO...X...........",
" .XooXXoOoOXoooXO..X.X..XXo.....",
" .XXX..XoooXoooXOOX...XX...X....",
" X.ooXXXXXXooooXOXO...XO...X....",
" XXooooooXXoooXOOXOO...oo...o...",
" XXoooooooXoooXXXOOOO..X.o..X...",
" .XoooooooXooXooXOOOOOOX..XOX...",
" .XoooooooXooXoXOXOOOOOX.XXX....",
" ..XXooooooXXoXOX.XOOOXXX.......",
" ....XXXXXXoXooX...XXXX.........",
" ...............................",
" ...............................",
" ..............................."
};
