/* XPM */
static char *_692c31c3da1454e8350ec93660aff43YB06oBjO2EH0Vw4s[] = {
/* columns rows colors chars-per-pixel */
"32 32 4 1 ",
"  c #F8E8F8",
". c #A8E058",
"X c #A0D0F8",
"o c white",
/* pixels */
" . X X . X.  X   X.  X   X.  X  ",
".XX. XXXX X X X X X X X X X X X ",
"X .XX  XX .X. X.X .X. X.X .X. X.",
"X..X..X  X..X.X  X..X.X  X..X.X ",
" XX.XX X.X..X.X..X..X.X..X..X.X.",
".X .X. X..X.XX....X.XX....X.XX..",
" .XX XX. ..XX..  ..XX..  ..XX.. ",
"       .       .       .. . X . ",
" X.  X   X.  X   X.  X   . X X .",
"X X X X X X X X X X X X .XX. XXX",
"X .X. X.X .X. X.X .X. X.X .XX  X",
" X..X.X  X..X.X  X..X.X X..X..X ",
".X..X.X..X..X.X..X..X.X. XX.XX X",
"..X.XX....X.XX....X.XX...X .X. X",
" ..XX..  ..XX..  ..XX..  .XX XX.",
"       .. . X .        .       .",
" X.  X   . X X . X.  X   X.  X  ",
"X X X X .XX. XXXX X X X X X X X ",
"X .X. X.X .XX  XX .X. X.X .X. X.",
" X..X.X X..X..X  X..X.X  X..X.X ",
".X..X.X. XX.XX X.X..X.X..X..X.X.",
"..X.XX...X .X. X..X.XX....X.XX..",
" ..XX..  .XX XX. ..XX..  ..XX.. ",
"       .       .       .. . X . ",
" X.  X   X.  X   X.  X   . X X .",
"X X X X X X X X X X X X .XX. XXX",
"X .X. X.X .X. X.X .X. X.X .XX  X",
" X..X.X  X..X.X  X..X.X X..X..X ",
".X..X.X..X..X.X..X..X.X. XX.XX X",
"..X.XX....X.XX....X.XX...X .X. X",
" ..XX..  ..XX..  ..XX..  .XX XX.",
"                                "
};
