/* XPM */
static char *e19b492991b84f1bc55c2f1fa44b1dccOOxDNRkIA2RjYFnX[] = {
/* columns rows colors chars-per-pixel */
"32 32 4 1 ",
"  c #A8E058",
". c #F8E8F8",
"X c #A0D0F8",
"o c white",
/* pixels */
" ....... ....... ....... .......",
"....... ....... ....... ....... ",
"................................",
". ....... ....... ....... ......",
"................................",
". ..... . ..... . ..... . ..... ",
".... ....... ....... ....... ...",
"................................",
" ....... ....... ....... .......",
"....... ....... ....... ....... ",
"................................",
". ....... ....... ....... ......",
"...........X.......X............",
". ..... ..XXX.....XXX.... ..... ",
".... ....XXXXX...XXXXX...... ...",
"........XXXXXXX.XXXXXXX.........",
" ....................... .......",
"....... ..XXX.....XXX.......... ",
"..........XXX.....XXX...........",
". ........XXX.....XXX.... ......",
"................................",
". ..... . ..... . ..... . ..... ",
".... ....... ....... ....... ...",
"................................",
" ....... ....... ....... .......",
"....... ....... ....... ....... ",
"................................",
". ....... ....... ....... ......",
"................................",
". ..... . ..... . ..... . ..... ",
".... ....... ....... ....... ...",
"................................"
};
