/* XPM */
static char *_25a11a517ae40a4c4f4a676bc704cfeyfXNMVrO4GSKd0Vl[] = {
/* columns rows colors chars-per-pixel */
"32 32 5 1 ",
"  c #F8E8F8",
". c #181010",
"X c #A0D0F8",
"o c #A8E058",
"O c white",
/* pixels */
"              .  .              ",
"   X X    .X.. .. .. X     X X  ",
" X     X . . . .. . .... X     X",
"     . ... .  . X.  . . . .     ",
"    . .. X X X X X X X X.. .    ",
"     .X X X X X X X X X X .     ",
"    .X X X X X X X X X XXXX.    ",
"   .. X X X X X X X X X X.X..   ",
"o ..X. . X X X X X X X.X.X.XX.  ",
" o .. . . . X X X X X.X.X.X..X  ",
"oX.. . . .X.XXXX X X X.X.XXX.. X",
" .XXX . . .XX X X X X XXXXX.XX. ",
"o..X.X X X X X X X X XXXXXXX... ",
".XX.XXXXX X X X X XXXXXXXX.X.XX.",
"o..XXXXXXXXX X XXXXXXXXXX.X.X.. ",
"X.XX.X.XXXXXXXXXXXXXXXXXXX.X.X.X",
".X..X.XXX.XXXXXXXXXXXXX.X.X.X.X.",
" ..X.X.X. .X.X.XXXXXXXXX.XXX... ",
".XX.X.X. X XX.XXXXX.X.X. X X.XX.",
" ..XX X X XX.XXX.X.X.X.XX X X.. ",
" .XX.X X XXXX.X.XXXXX.XXXXX.XX. ",
"  ..XXXXXX.X.X.X.X.X.X.XXX.X..  ",
"   ...X.X.X.X.XXX.X.X.X.X ...   ",
"     ....X.X.X.X.X.X.X.X...     ",
"        ...X..X.X.X.X...        ",
" o     o   ....X.X...X   o     o",
"    o    X..X.X. XXX..X     o   ",
"        X.X.X      X. .X        ",
"o       X..XX      XX.XXo       ",
"       o.   ..    .XXX.X       o",
"        X...XX.X  ... .X        ",
" o       XXXXXXX...XX.X  o      "
};
