/* XPM */
static char *_a89b73fac124797e208e3d68c8169betTVdu2eWB3dw5xAD[] = {
/* columns rows colors chars-per-pixel */
"32 32 5 1 ",
"  c #181010",
". c #A8E058",
"X c #A0D0F8",
"o c #F8E8F8",
"O c #FFEFFF",
/* pixels */
"oooooooooooooooooooooooooooooooo",
"o.ooooo.o.ooooo.o.ooooo.o.ooooo.",
"oooo.ooooooo.ooooooo.ooooooo.ooo",
"oooooooooooooooooooooooooooooooo",
".ooooooo.ooooooo.ooooooo.ooooooo",
"ooooooo.ooooooo.ooooooo.ooooooo.",
"oooooooooooooooooooooooooooooooo",
"o.ooooooo.ooooooo.ooooooo.oooooo",
"oooooooooooooooooooooooooooooooo",
"o.ooooo.o.ooooo.o.ooooo.o.ooooo.",
"oooo.oooooo          ooooooo.ooo",
"ooooooooooo O.OOOO.O ooooooooooo",
".ooooooo.oo O      O ooo.ooooooo",
"ooooooo.ooo O      O oo.ooooooo.",
"ooooooooooo O.OOOO.O ooooooooooo",
"o.ooooooo.o O      O oooo.oooooo",
"ooooooooooo O      O ooooooooooo",
"o.ooooo.o.o O.OOOO.O oo.o.ooooo.",
"oooo.oooooo X      X ooooooo.ooo",
"ooooooooooo X      X ooooooooooo",
".ooooooo.oo ..XXXX.. ooo.ooooooo",
"ooooooo.ooo .      . oo.ooooooo.",
"ooooooooooo   ....   ooooooooooo",
"o.ooooooo.ooooooo.ooooooo.oooooo",
"oooooooooooooooooooooooooooooooo",
"o.ooooo.o.ooooo.o.ooooo.o.ooooo.",
"oooo.ooooooo.ooooooo.ooooooo.ooo",
"oooooooooooooooooooooooooooooooo",
".ooooooo.ooooooo.ooooooo.ooooooo",
"ooooooo.ooooooo.ooooooo.ooooooo.",
"oooooooooooooooooooooooooooooooo",
"o.ooooooo.ooooooo.ooooooo.oooooo"
};
